<mxfile host="app.diagrams.net" modified="2024-04-11T01:39:29.223Z" agent="Mozilla/5.0 (Windows NT 10.0; Win64; x64) AppleWebKit/537.36 (KHTML, like Gecko) Chrome/123.0.0.0 Safari/537.36" etag="3_eXzR3O5Y0qJEF2WJhM" version="24.2.1" type="device">
  <diagram name="Página-1" id="63UQ90G6z4inRFAnaZ4_">
    <mxGraphModel dx="2193" dy="1904" grid="1" gridSize="10" guides="1" tooltips="1" connect="1" arrows="1" fold="1" page="1" pageScale="1" pageWidth="827" pageHeight="1169" math="0" shadow="0">
      <root>
        <mxCell id="0" />
        <mxCell id="1" parent="0" />
        <mxCell id="Uc-f4Ewm9fvxlKjvNhb2-4" value="" style="edgeStyle=orthogonalEdgeStyle;rounded=0;orthogonalLoop=1;jettySize=auto;html=1;" edge="1" parent="1" source="Uc-f4Ewm9fvxlKjvNhb2-1" target="Uc-f4Ewm9fvxlKjvNhb2-3">
          <mxGeometry relative="1" as="geometry" />
        </mxCell>
        <mxCell id="Uc-f4Ewm9fvxlKjvNhb2-1" value="" style="shape=cylinder3;whiteSpace=wrap;html=1;boundedLbl=1;backgroundOutline=1;size=15;" vertex="1" parent="1">
          <mxGeometry x="-760" y="-1080" width="60" height="80" as="geometry" />
        </mxCell>
        <mxCell id="Uc-f4Ewm9fvxlKjvNhb2-7" value="" style="edgeStyle=orthogonalEdgeStyle;rounded=0;orthogonalLoop=1;jettySize=auto;html=1;" edge="1" parent="1" source="Uc-f4Ewm9fvxlKjvNhb2-3" target="Uc-f4Ewm9fvxlKjvNhb2-5">
          <mxGeometry relative="1" as="geometry" />
        </mxCell>
        <mxCell id="Uc-f4Ewm9fvxlKjvNhb2-14" value="" style="edgeStyle=orthogonalEdgeStyle;rounded=0;orthogonalLoop=1;jettySize=auto;html=1;" edge="1" parent="1" source="Uc-f4Ewm9fvxlKjvNhb2-3" target="Uc-f4Ewm9fvxlKjvNhb2-12">
          <mxGeometry relative="1" as="geometry" />
        </mxCell>
        <mxCell id="Uc-f4Ewm9fvxlKjvNhb2-3" value="" style="shape=image;html=1;verticalLabelPosition=bottom;verticalAlign=top;imageAspect=0;image=img/clipart/Gear_128x128.png" vertex="1" parent="1">
          <mxGeometry x="-650" y="-930" width="30" height="30" as="geometry" />
        </mxCell>
        <mxCell id="Uc-f4Ewm9fvxlKjvNhb2-27" value="" style="edgeStyle=orthogonalEdgeStyle;rounded=0;orthogonalLoop=1;jettySize=auto;html=1;" edge="1" parent="1" source="Uc-f4Ewm9fvxlKjvNhb2-5" target="Uc-f4Ewm9fvxlKjvNhb2-9">
          <mxGeometry relative="1" as="geometry" />
        </mxCell>
        <mxCell id="Uc-f4Ewm9fvxlKjvNhb2-5" value="" style="shape=cylinder3;whiteSpace=wrap;html=1;boundedLbl=1;backgroundOutline=1;size=15;" vertex="1" parent="1">
          <mxGeometry x="-540" y="-955" width="60" height="80" as="geometry" />
        </mxCell>
        <mxCell id="Uc-f4Ewm9fvxlKjvNhb2-29" value="" style="edgeStyle=orthogonalEdgeStyle;rounded=0;orthogonalLoop=1;jettySize=auto;html=1;entryX=1;entryY=0.5;entryDx=0;entryDy=0;entryPerimeter=0;" edge="1" parent="1" source="Uc-f4Ewm9fvxlKjvNhb2-9" target="Uc-f4Ewm9fvxlKjvNhb2-12">
          <mxGeometry relative="1" as="geometry">
            <mxPoint x="-360" y="-820" as="sourcePoint" />
            <mxPoint x="-735" y="-779.9999999999999" as="targetPoint" />
            <Array as="points">
              <mxPoint x="-375" y="-780" />
            </Array>
          </mxGeometry>
        </mxCell>
        <mxCell id="Uc-f4Ewm9fvxlKjvNhb2-6" value="" style="shape=cylinder3;whiteSpace=wrap;html=1;boundedLbl=1;backgroundOutline=1;size=15;" vertex="1" parent="1">
          <mxGeometry x="-260" y="-910" width="60" height="80" as="geometry" />
        </mxCell>
        <mxCell id="Uc-f4Ewm9fvxlKjvNhb2-28" value="" style="edgeStyle=orthogonalEdgeStyle;rounded=0;orthogonalLoop=1;jettySize=auto;html=1;" edge="1" parent="1" source="Uc-f4Ewm9fvxlKjvNhb2-9" target="Uc-f4Ewm9fvxlKjvNhb2-6">
          <mxGeometry relative="1" as="geometry" />
        </mxCell>
        <mxCell id="Uc-f4Ewm9fvxlKjvNhb2-9" value="" style="shape=image;html=1;verticalLabelPosition=bottom;verticalAlign=top;imageAspect=0;image=img/clipart/Gear_128x128.png" vertex="1" parent="1">
          <mxGeometry x="-390" y="-900" width="30" height="30" as="geometry" />
        </mxCell>
        <mxCell id="Uc-f4Ewm9fvxlKjvNhb2-12" value="" style="shape=cylinder3;whiteSpace=wrap;html=1;boundedLbl=1;backgroundOutline=1;size=15;" vertex="1" parent="1">
          <mxGeometry x="-665" y="-820" width="60" height="80" as="geometry" />
        </mxCell>
        <mxCell id="Uc-f4Ewm9fvxlKjvNhb2-15" value="&lt;font style=&quot;vertical-align: inherit;&quot;&gt;&lt;font style=&quot;vertical-align: inherit;&quot;&gt;&lt;font style=&quot;vertical-align: inherit;&quot;&gt;&lt;font style=&quot;vertical-align: inherit;&quot;&gt;&lt;font style=&quot;vertical-align: inherit;&quot;&gt;&lt;font style=&quot;vertical-align: inherit;&quot;&gt;BD Relacional&lt;/font&gt;&lt;/font&gt;&lt;/font&gt;&lt;/font&gt;&lt;/font&gt;&lt;/font&gt;&lt;div&gt;&lt;font style=&quot;vertical-align: inherit;&quot;&gt;&lt;font style=&quot;vertical-align: inherit;&quot;&gt;&lt;font style=&quot;vertical-align: inherit;&quot;&gt;&lt;font style=&quot;vertical-align: inherit;&quot;&gt;&lt;font style=&quot;vertical-align: inherit;&quot;&gt;&lt;font style=&quot;vertical-align: inherit;&quot;&gt;&lt;font style=&quot;vertical-align: inherit;&quot;&gt;&lt;font style=&quot;vertical-align: inherit;&quot;&gt;[base_analítica]&lt;/font&gt;&lt;/font&gt;&lt;/font&gt;&lt;/font&gt;&lt;/font&gt;&lt;/font&gt;&lt;/font&gt;&lt;/font&gt;&lt;/div&gt;" style="text;strokeColor=none;align=center;fillColor=none;html=1;verticalAlign=middle;whiteSpace=wrap;rounded=0;" vertex="1" parent="1">
          <mxGeometry x="-760" y="-1140" width="60" height="30" as="geometry" />
        </mxCell>
        <mxCell id="Uc-f4Ewm9fvxlKjvNhb2-16" value="&lt;font style=&quot;vertical-align: inherit;&quot;&gt;&lt;font style=&quot;vertical-align: inherit;&quot;&gt;&lt;font style=&quot;vertical-align: inherit;&quot;&gt;&lt;font style=&quot;vertical-align: inherit;&quot;&gt;&lt;font style=&quot;vertical-align: inherit;&quot;&gt;&lt;font style=&quot;vertical-align: inherit;&quot;&gt;&lt;font style=&quot;vertical-align: inherit;&quot;&gt;&lt;font style=&quot;vertical-align: inherit;&quot;&gt;Procedure&lt;/font&gt;&lt;/font&gt;&lt;/font&gt;&lt;/font&gt;&lt;/font&gt;&lt;/font&gt;&lt;/font&gt;&lt;/font&gt;" style="text;strokeColor=none;align=center;fillColor=none;html=1;verticalAlign=middle;whiteSpace=wrap;rounded=0;" vertex="1" parent="1">
          <mxGeometry x="-720" y="-930" width="60" height="30" as="geometry" />
        </mxCell>
        <mxCell id="Uc-f4Ewm9fvxlKjvNhb2-17" value="&lt;font style=&quot;vertical-align: inherit;&quot;&gt;&lt;font style=&quot;vertical-align: inherit;&quot;&gt;&lt;font style=&quot;vertical-align: inherit;&quot;&gt;&lt;font style=&quot;vertical-align: inherit;&quot;&gt;&lt;font style=&quot;vertical-align: inherit;&quot;&gt;&lt;font style=&quot;vertical-align: inherit;&quot;&gt;&lt;font style=&quot;vertical-align: inherit;&quot;&gt;&lt;font style=&quot;vertical-align: inherit;&quot;&gt;&lt;font style=&quot;vertical-align: inherit;&quot;&gt;&lt;font style=&quot;vertical-align: inherit;&quot;&gt;BD_Temp (NI)&lt;/font&gt;&lt;/font&gt;&lt;/font&gt;&lt;/font&gt;&lt;/font&gt;&lt;/font&gt;&lt;/font&gt;&lt;/font&gt;&lt;/font&gt;&lt;/font&gt;&lt;div&gt;&lt;font style=&quot;vertical-align: inherit;&quot;&gt;&lt;font style=&quot;vertical-align: inherit;&quot;&gt;&lt;font style=&quot;vertical-align: inherit;&quot;&gt;&lt;font style=&quot;vertical-align: inherit;&quot;&gt;&lt;font style=&quot;vertical-align: inherit;&quot;&gt;&lt;font style=&quot;vertical-align: inherit;&quot;&gt;&lt;font style=&quot;vertical-align: inherit;&quot;&gt;&lt;font style=&quot;vertical-align: inherit;&quot;&gt;&lt;font style=&quot;vertical-align: inherit;&quot;&gt;&lt;font style=&quot;vertical-align: inherit;&quot;&gt;&lt;font style=&quot;vertical-align: inherit;&quot;&gt;&lt;font style=&quot;vertical-align: inherit;&quot;&gt;- Temporárias&lt;br&gt;- De/Para&lt;/font&gt;&lt;/font&gt;&lt;/font&gt;&lt;/font&gt;&lt;/font&gt;&lt;/font&gt;&lt;/font&gt;&lt;/font&gt;&lt;/font&gt;&lt;/font&gt;&lt;/font&gt;&lt;/font&gt;&lt;/div&gt;" style="text;strokeColor=none;align=center;fillColor=none;html=1;verticalAlign=middle;whiteSpace=wrap;rounded=0;" vertex="1" parent="1">
          <mxGeometry x="-550" y="-1000" width="80" height="30" as="geometry" />
        </mxCell>
        <mxCell id="Uc-f4Ewm9fvxlKjvNhb2-18" value="&lt;font style=&quot;vertical-align: inherit;&quot;&gt;&lt;font style=&quot;vertical-align: inherit;&quot;&gt;&lt;font style=&quot;vertical-align: inherit;&quot;&gt;&lt;font style=&quot;vertical-align: inherit;&quot;&gt;&lt;font style=&quot;vertical-align: inherit;&quot;&gt;&lt;font style=&quot;vertical-align: inherit;&quot;&gt;&lt;font style=&quot;vertical-align: inherit;&quot;&gt;&lt;font style=&quot;vertical-align: inherit;&quot;&gt;Procedure&lt;/font&gt;&lt;/font&gt;&lt;/font&gt;&lt;/font&gt;&lt;/font&gt;&lt;/font&gt;&lt;/font&gt;&lt;/font&gt;" style="text;strokeColor=none;align=center;fillColor=none;html=1;verticalAlign=middle;whiteSpace=wrap;rounded=0;" vertex="1" parent="1">
          <mxGeometry x="-436" y="-870" width="60" height="30" as="geometry" />
        </mxCell>
        <mxCell id="Uc-f4Ewm9fvxlKjvNhb2-19" value="&lt;font style=&quot;vertical-align: inherit;&quot;&gt;&lt;font style=&quot;vertical-align: inherit;&quot;&gt;&lt;font style=&quot;vertical-align: inherit;&quot;&gt;&lt;font style=&quot;vertical-align: inherit;&quot;&gt;&lt;font style=&quot;vertical-align: inherit;&quot;&gt;&lt;font style=&quot;vertical-align: inherit;&quot;&gt;&lt;font style=&quot;vertical-align: inherit;&quot;&gt;&lt;font style=&quot;vertical-align: inherit;&quot;&gt;BD-DW &lt;/font&gt;&lt;/font&gt;&lt;br&gt;&lt;font style=&quot;vertical-align: inherit;&quot;&gt;&lt;font style=&quot;vertical-align: inherit;&quot;&gt;- Dimensões&amp;nbsp; &lt;/font&gt;&lt;/font&gt;&lt;br&gt;&lt;font style=&quot;vertical-align: inherit;&quot;&gt;&lt;font style=&quot;vertical-align: inherit;&quot;&gt;- Fatos&lt;/font&gt;&lt;/font&gt;&lt;/font&gt;&lt;/font&gt;&lt;/font&gt;&lt;/font&gt;&lt;/font&gt;&lt;/font&gt;" style="text;strokeColor=none;align=center;fillColor=none;html=1;verticalAlign=middle;whiteSpace=wrap;rounded=0;" vertex="1" parent="1">
          <mxGeometry x="-190" y="-885" width="80" height="30" as="geometry" />
        </mxCell>
        <mxCell id="Uc-f4Ewm9fvxlKjvNhb2-20" value="&lt;font style=&quot;vertical-align: inherit;&quot;&gt;&lt;font style=&quot;vertical-align: inherit;&quot;&gt;BD_Metadados_Log&lt;br&gt;- Metadados&lt;/font&gt;&lt;/font&gt;&lt;div&gt;&lt;font style=&quot;vertical-align: inherit;&quot;&gt;&lt;font style=&quot;vertical-align: inherit;&quot;&gt;&lt;font style=&quot;vertical-align: inherit;&quot;&gt;&lt;font style=&quot;vertical-align: inherit;&quot;&gt;- Logs de carga&lt;/font&gt;&lt;/font&gt;&lt;/font&gt;&lt;/font&gt;&lt;/div&gt;" style="text;strokeColor=none;align=center;fillColor=none;html=1;verticalAlign=middle;whiteSpace=wrap;rounded=0;" vertex="1" parent="1">
          <mxGeometry x="-675" y="-720" width="80" height="30" as="geometry" />
        </mxCell>
        <mxCell id="Uc-f4Ewm9fvxlKjvNhb2-21" value="&lt;font style=&quot;vertical-align: inherit;&quot;&gt;&lt;font style=&quot;vertical-align: inherit;&quot;&gt;&lt;font style=&quot;vertical-align: inherit;&quot;&gt;&lt;font style=&quot;vertical-align: inherit;&quot;&gt;Cenário N1 - todo o processo de ETL será executado dentro do ambiente MySQL&lt;/font&gt;&lt;/font&gt;&lt;/font&gt;&lt;/font&gt;&lt;div&gt;&lt;font style=&quot;vertical-align: inherit;&quot;&gt;&lt;font style=&quot;vertical-align: inherit;&quot;&gt;&lt;font style=&quot;vertical-align: inherit;&quot;&gt;&lt;font style=&quot;vertical-align: inherit;&quot;&gt;&lt;br&gt;&lt;/font&gt;&lt;/font&gt;&lt;/font&gt;&lt;/font&gt;&lt;/div&gt;" style="text;strokeColor=none;align=center;fillColor=none;html=1;verticalAlign=middle;whiteSpace=wrap;rounded=0;" vertex="1" parent="1">
          <mxGeometry x="-170" y="-1080" width="157" height="30" as="geometry" />
        </mxCell>
        <mxCell id="Uc-f4Ewm9fvxlKjvNhb2-24" value="&lt;font style=&quot;vertical-align: inherit;&quot;&gt;&lt;font style=&quot;vertical-align: inherit;&quot;&gt;&lt;font style=&quot;vertical-align: inherit;&quot;&gt;&lt;font style=&quot;vertical-align: inherit;&quot;&gt;Camada que antecede o DW com o objetivo de tratar e validar os dados&lt;/font&gt;&lt;/font&gt;&lt;/font&gt;&lt;/font&gt;" style="text;strokeColor=none;align=center;fillColor=none;html=1;verticalAlign=middle;whiteSpace=wrap;rounded=0;" vertex="1" parent="1">
          <mxGeometry x="-435" y="-990" width="80" height="30" as="geometry" />
        </mxCell>
        <mxCell id="Uc-f4Ewm9fvxlKjvNhb2-25" value="&lt;font style=&quot;vertical-align: inherit;&quot;&gt;&lt;font style=&quot;vertical-align: inherit;&quot;&gt;&lt;font style=&quot;vertical-align: inherit;&quot;&gt;&lt;font style=&quot;vertical-align: inherit;&quot;&gt;&lt;font style=&quot;vertical-align: inherit;&quot;&gt;&lt;font style=&quot;vertical-align: inherit;&quot;&gt;Durante o processo de carga [logs e metadados] serão armazenados nesta base&amp;nbsp;&lt;/font&gt;&lt;/font&gt;&lt;/font&gt;&lt;/font&gt;&lt;/font&gt;&lt;/font&gt;" style="text;strokeColor=none;align=center;fillColor=none;html=1;verticalAlign=middle;whiteSpace=wrap;rounded=0;" vertex="1" parent="1">
          <mxGeometry x="-806" y="-718" width="80" height="30" as="geometry" />
        </mxCell>
        <mxCell id="Uc-f4Ewm9fvxlKjvNhb2-31" value="" style="strokeWidth=2;html=1;shape=mxgraph.flowchart.annotation_2;align=left;labelPosition=right;pointerEvents=1;" vertex="1" parent="1">
          <mxGeometry x="-726" y="-725" width="35" height="40" as="geometry" />
        </mxCell>
        <mxCell id="Uc-f4Ewm9fvxlKjvNhb2-32" value="" style="strokeWidth=2;html=1;shape=mxgraph.flowchart.annotation_2;align=left;labelPosition=right;pointerEvents=1;rotation=-180;" vertex="1" parent="1">
          <mxGeometry x="-470" y="-1007" width="35" height="40" as="geometry" />
        </mxCell>
        <mxCell id="Uc-f4Ewm9fvxlKjvNhb2-42" value="" style="shape=image;verticalLabelPosition=bottom;labelBackgroundColor=default;verticalAlign=top;aspect=fixed;imageAspect=0;image=data:image/png,iVBORw0KGgoAAAANSUhEUgAAAKgAAAA+CAYAAAC/dFDqAAAAAXNSR0IArs4c6QAAAARnQU1BAACxjwv8YQUAAAAJcEhZcwAADsMAAA7DAcdvqGQAABVDSURBVHhe7Zzty2XXWcb9+Aj6JwgKggiKRVDwhfghptJqk+nLxNS2oTVppmmCaZ3pEBuLdJK2DukkM5lYpqGxjQ2laNQ2UCyUQrRVUUGKGBA0mFoURLDFD5piZXv9rnXf+6y99zrn7HOemSfztHvDxd5n77Xue7389r1eznme7zq462K36JjoVOPeWj1mffcdj+yktq1dVPzu63+oC90C6LetXg5Ah3Du43+oBdDjJUfQC9P7a0XaBOXCqPPbOrjj0Sr/rloA/Q6XgDu1A6Bve1DpL+l6PqCppr091LI9Xwugx0y7AXrvxz7THdz+UB952xCsV8vmrmrZna8F0GOmHSNoynn2AZRhumFvB7XsztcC6DHTIQCV2hCs1wLoot3FcL0rpCfOKs/D7vASSWu1wCjKhU7T5hyFz5bteVoAPWYKWNTx02czlJH0zvNF1xpQaQH0O02OoOfbz7Zpb0B3jNgjtWzP0wLo8ZLhVPQUoADWTDNHAequC6emrR3VsrteC6DHSxk9rUNEtT0APXgr50P4bKjlZ6gF0OMnQxpqPd9Ftz/UgKItvmHyuWXnEBr7GWoB9Bgq54UhVujNdPPUBmO9WjYOo5aPlRZAj6GGgB79sHuUkC6AHkMNAS1qpdtPbVBaOooXYwH0GKoF6OPlO/dm+t3UBqWlsl3VsrGXYo479rEA+m2jqxPRppCsU+ynXsVI2vKxALpooikoU/l3o94FEKBsQRFNX3N3095cTf0sgC5qaArKVGVqcXWH+amfBdBFDU1Bmco/hPZvAq6LIX48KU+N09Sfd9HYbsi/Bm+lv97UKPtOatmsNSfN1dMUlKlW32pN8++rqZ8WoP4KjAbRylDyHOPkmanedL+eR1oV9Hvv+YCuR7aayk7BPmfZ4E8TsFfbv+2B7uB1OvtrOfLhC43tHYVUTuZcmmv57PJkPbiOoY6V9BzRsXedK3I7qi1cT75nR1FX3wMCxH35ogxzNclff+aaKCibtL/bNv+GiK9A+SxoPITzeQpP3h+21f5q+WhE0FIwF1yA3PzeS91Tn//z7q/+6avd8//xX9YXdH37hSf93BVw5alIbWeTElBdC8ZXvONs9+FPP9v99b983fY5P/t3X+3e98nPlQ4EVnfY2M5RiTZRed/+uzpT9nPdD956orvxjtd3bzj9+u7tp092d55+dffu95yYJdLn+Vfvf4fqCLRRv4QGvwb6TPdDb31Ld8OpW3pfc3Ty3l92HvJiwxD65cI+wt/DbnvS3/fe1/Z5b373u1Z/z6Q09PEUnpWm7bWfprabETTeGoHzxJ/8afc/Xdd9q3tpom/q/pN/8ZUS7Zw3gJuj7ADBRwMBJX6Kr3Jw5vML3/yWX5LyJmfEOmoFoAKGDn/kw2/q/ubKT1ovXPlh62tXvn+2/vGJH+jPz33qpu6Vp253Z5Q2ROe6H3/zqe43Tv9i9+yVk/ZDWpT+5ugrH3+F7X/iUgHPfUVkxUdEU0AmXW37Dz+h1fhtp/Q8QI5IuU7tNttdU9vrhni9Pb909pG1cHb/Jzz/t0DkP8wiAswF1FGi+Dg4ea8jc8IJ9D5ku5eOz/7Di/7O+Wo2xm7Si6EoRAT77KWf6P7t0kH3749Oxf05qvM8/9GfqQAt0ZnIB5hAXKcf512n3tfllfDzkcvvNPhl+C8v/cm7fsFwfuNDq/x/9OjPB6AFzvYm+krtNttPQ9tNQBWpFNkYXg1MwJiwDK51EP38ZroyI1stGVBNCeSDacLqJdCRtmvpIIoWHyNbRyQ6kuE84aQzEwA6lwiUEXWbMu2ffeQGn4lwN91zuvhSuxChn7p80wSwrz3+fY5uta1NIi1lqyHn3uWLv1baEugCUNJQJ3xwjf8CKKMW/cpapAZnqHF7HUZD2+vmoIqIAGpoBGie//7Ff+6+rss6kvLM81HmS+TPCGlbrSFZ93iu6PnCv/6nIVzZesk+sNlHU93vAWUOZZtpFz+psD14vkUZIbLMfYfwHBsx5Opl+q1fF5zAEp2NgIyhE3gRcM0RUawW9h1BNddmWAcUvwTyhx98ElHxRbQda2yPe4D3ofOv8gtRgw68DOtlmL9YAJU//CTM+PK81W2kYKK2GIKzTqvF1b4a22sAqo4JQBOQBPTzz33RSkATJBZN5WdfyuvODlsGKu2mlEbDO/NK29VBFMU+57OPXbTNJqDkT/u1WvcHPtcp4YyFg+9VYFaAPvHgDT0s2ZnMRf3tSa7M1ZmeK9OpIT5PFB256lCddZ+XNv30wARUQFemUpHWL1TkHdgrHZuLK+wRSRNQoui7Hr6npJOdBJR6JagrQOlPAG3NDzdr2M7zNbSzI6CAyHBUomgRB58BjrmNG6cHhM6ubSM9V6f+wd8+XzLrKMN85/ko9rluAppRbgAD91BCEfcmfluiA1RuOp552Vt0j7NBqMq+BlBWvrxs7hBH3wpqbCFe0jliy0nDKvO/9IMPZGBUBtsNKK287tsA0QaUu2wR3vrGnyuAZrkFoV8sv1QXrhmgaNXO8zW0MRNQS4cj5Q23ehuIw4B6iO68FXVw8/tKY/dRbAyohgpBxcrdFgz/SwYUveejv+9n2LNtjgGg2BUI6iwWcbX8gvTw1j43iej4UHfy/Ke6ux97prvnkWd8ZuGHzf4FEDwTQNWZBjTAdlquRxo2eIi03kIq8ucAlHmu/RDx5AuxCi/AKE22bS2381Q1oFl2BKD45Pm1BBRN23yzhvn3AfTGO9yJHAkozwHO+4R0TD9cNmxrnsX2FEdOFbDuxZYiaz/0h0+er4b4AjjpuJcHKfE/mAvPkgDV1IR65YFVbH3wc18uUcsAbACUKKl6lw6nQ1THOjJmJE01oY3oVwFqaAJSA6p2KyDzwtSSTepRiz7ws3MGsAc0hnkDik+V7xgCKgnQD378M+6wBIXDgBIl1XEGJOGNNEDtDqAhXTEqSKNm4+nz684YgIQTIIieziu/RC4fssmzIaBqVDpSNpgO9IfSYgNAqdT8hinl6W1FXeryOJ3mho+//0QP5xCcU8VnAhpgZiMnSL4GHFSB6s/5BYD89IAyvAsY1ANK+nH09AukvAPFPT171dtebUATTsqdgGLvWgOK3CZ9m2/WMO8Y0KzwNkDVqXzz4yOeA5OjYPwXiwJTDLvAybWeYTfBS0ANoBvkYnfrmd/BnO1OAPUcS9J1QkUa0lKKBHRQp41SB2wB1PY0z2SoZC+RDkSssllw5CY4HZ2r+VrsabLAYcHirRtB6CjvTlO7ALMjo65VrxpQgOoB9Rw04Zsj0j5mQClnD6i0AvTaD/EtlbqX8qVa6fYHlE12VeDFb/x3PCkHHcvw78hjWwClCgpOd4KG5j5P7HGSh2+sSoS4MIigaCOgMf8l3RBQKh112iilmwMo6QQXW01s2ySkBkmdSoTiPgCPBRyIlTjbUiyCANrbS56OaDEzG9BWHdapdPwE0EEEfXkAna89AXWDqmNZGPWHYCElC6iDV94nO7looYOxeb8XQb01AJUY7lkYlQYrCx6gc7omoGqwCqoWoNgZ1Gut2oBiawCo2oQ6AxXfubORDZCGSB1Lp9L5Ce02AQwQeD/S4DH9WQCd6jCAKs2PvflMASQOYCL6MEx7bpWrToZ7DW3kTwASaH+NybBHJFGhElDskHYboAY9bOYiCTuDeq3VTECpBwB5rlh+KAKozEuJiEBFdGyJZ8BsSARBfqUIDDw3pBFJjwRQ6fgCmqoABZA8DKi/E1enMY+I/cyMYoZFB/cKULGa1/D9xgev9IujBIHP3h5iykBjCOoENG1OAZUEVU4VeE7aBLQMl3TOqE5NzQQ0RwK/wPEZaOnEWswxRyLqMhcF6NzjRAnLF54WDKSlrXTuAQWaSLMCVL6z3C5LlMMQcY/nEn0TZR4skgQhZwAtC7ctgMb8mHRtgLYrF4PuF/aMw55fSoIJ9ykvvkZ5SdcGVBlnAapGA7CMdj5Gw7YbT3AlyAWoYtP2BHlpWPmtAPUxAVS2SHvkgOK3JSDQuWr4oUpDO43aChjGWz4rQFWeOYBGh5c6MjUIWH2OurNLEGW7HgC1KJPLO9V6+4cAFLkRBNiggwUowHofUZGThu035mM4RqTxkOwFF0Oc/G4FFJ9HC6ihALCJlN8jBL7CX0SCWqU86gh10GDTPOBbB2g+Rz2gBlG21O60qfNJXnDFtcsSUxHKeShAZevQgFJev1Rqxxhl+h2NauR0W03y7wsojZ6wyAmLH4Bz2jFUEqv0HjoOpfGWFAVWI7rw+D2OgNai0+2f+hSVuhVAcz64P6DYOucO5vt08tbzXT7zk8DSrvTR4QF1XdVWU3jmKOqusmSZH37i7l7+sbZfqoR4mn+/OagBRUpLoymKAlwNKBHTW056BmCrZ9jsvI+ajf7yAEqaXQGtrisIVwqblWjokr58q3MoQOWj2DvvhRrfbuUCyHkEGT/fYxur9FEBtF8k7QwocFEvlW00MmyTy8k17aB6USb88mstvoE7deeP+HP/FwXRVkM1AZVBZaCD+k6Lw4DGKj7lPLr3/qefK4kCKgCl4wG9t6AhHpgMnAulBnBHRiNsA5R0vBhAz0/14jnRG3/+8bSAc8MwbNSKRqtl/3rhekCZgkgJqF8cdVD5eytW8vocHVDKMpLrUVTahms6ufzOk31UolkO8zUM9qWOZCEFRMCS21hERxZangrZFxFb9pWezu6nDUCmPOy5AsTBa26xzwQP8dy/CfWcsCyiSJ/58c1nvmDoh2D1zarN4sXL/lfd+mu3C30q27pPuyFeJn4s/bO3/Kh/rU9d2AHBd/8j6rRb9c9GQIlwBmUboDQaACiPo1oFDTm5V9vh2hvzPaD4pCN1lp1NgBZg5FPRpN+Dxa6EdaI40w22v0iT57WiA06WX/X7WAMo6Zjz5bdDfDOU19tEJxCl+G0mHW8IJIAgshFF/AKoQykTf6vUbzEFoJz/8sk3+Bmg06GIa+a1n3xn+UrUaeMMtIDt4b3ySRlee18ZVqkfNtjXxUdCTFpeFKIdZacOALurPE9W2+Hvwcu/2X3PLT/dPfX0r7gtqDe+eVn8g23DvSOgPgIsjhagFh2pSAR4PgKsPm985hORztEIqB0JcshcAUq6hHoKaBkuUQ7z9hO+yIePXZRltc8WoIpwNCj7mbsKCDkDSkYy/3pdQDC8A3F5QanT4wYPOHhuQGNo5hpbfDsFZMDHGXGvhtCQRRRO0MmL/PdG/fyy1A0IsVMDSl7Sp4+x6m/LUvmMfLxQfhEUwHihiZQAytyTLTfmo0R47vd/UXA1AS3DTYErQaWyA2g4iEru/DLs+w/tBHOJngCgfIZOvgUo21bkbAGaw6jB0ZtJhOSvP7FrbxEBM992FT/kTTUBve2B7tMfWO1h7qIEx50uUAAVYIla3qTnSwpW3bQDbaJ6EbF47ugnwFp2ke0CcECcZ57ly5DpgIbpBC8AnV/WD/Gya6oApEAFYBl16/z1da/0XckvlZ7hzws2tR+REhDxQSQFTM585j7+XZ6rBaiHxh7QApgB1X1+U7nKUQ4gYMh3fheGFW+Zm7mB3DnyHYCOjxWgrPjVuMyf8E9ezTnJw5DPvBTfCR7Ko743fkbZ6l2ICaDyxUIlAaPzOc9V5qPzAc8d53ag7Uq7uf74cluUlXpu7hOd6PBURkYDoesUPjJa88xABTT4JoK57RBtb38SL4j6HJ8M6/gkQtd+sy6bRBkyPf68AGKk1AvOSEH0ZHin/syNgdN/KaA07lfYG0A6BtQUF2D4ES+wpViRc89zN6VJIyVvMexr9j7V4Jf++EuOlmzQsyfqPU9DRgdU6XMnQPcNue43/VIulw2oSY9fpGtgZU4bYpowFhCPxbdbzJP4OygOIAVQzgCK3VKmcx6GiHg7S1GCc/2LJhrebdcv3MrnsVwvjUrko4Oxw+JnnexLAmx2AwAlIQWgjKDuA8SL4bYv7Zh19csj1X5bArRa6Z/rnIP6Jaefoh5Ay/DO2e1hnhSs+rao1YigufIqMKjAbqSQK1Qql0ZyclsUix7S5UIEYAPakhfAhj4LpDyjMpIgs22Aw6/f9vDrRiQdvpD8Rr5sDKdxw6+mH+UedmrpXvVFg6PqCFCXO/zYhj7X9vLeqn4jZXqXLdqo2RljUX5sqJy0EZGISBO+a03865oXYjxNIMIBqaMW6SmL2wFfKfqi7OnaVnIwFvfH4r7txrXts86QLfpF9XI9sqzux01t0hri685L2YgEjChCci07ZujgnIVywSgkdvPf41AZ7NU+UTRI75uOCb+W7GSjOQ15o0z2V+SyZDnzOWfKlcJWXt94h1f/9TEA1D7xR124pqx0YPjXuW8DpxvJ5WbYihdINjP9ZimtOzJesszvTh0p6ks+X6tepM290hpS5ofMNYlwDiDZTyED35d/3DdbFG2SZS3lHQE8EM8z7bj+pQ4TQPPh4H40QN+pboCp/Cwbyp2Xigr2b1bp2F5uhGyUuvCRP/07LZ0uOzQuCwymDURozigjNytV5DQNKQ2/umKRlUN7LrL4zBTADQyMBiWus6yGI8rfi3sjZSfH5wJbu/1qub7eqwRwbJT2y6jZizJm+6SyjHoZGNKZ9z3zsZ9yRGV+SRT97d97oGwDuYy18Em74zcV9irhu69jrarcTgMTfOY+z50/+7iks/R82g7NCBry5wJHIbwUYNUwU2Ort4SCVCHdhZOt7OCxTxecfCp8VjRlW1EpbGDvxFmDxY4BMHFGLKYQq/q8l1tJqfp+LubqVT0HQ74hdqSMod3lpuMoVysaoCxvrXxGHfi8CgKblXnHEXTYdnl/+IxrpI6n3DH/89wyX2zdK/XCTyXnL9D05XA/FDB7cS/7lTNSeW0zXyy3WcWE2y/uhz/Xra/ftA2mgG5RNsbU2GaVwqXatreLygkaNTAQJVh7H7ktpQNYEeC7E7Nh3QmlMVdK2PI6PruMdT3ruq7utdqnrf3aulbtdyLVrZVnqF38t9Juq8Om58cQUNvSUM6WFdETqOqto4yCcw/SE1H5SwDvNGjRtJroy6ejQcK4RYM6rte4ba6lWv5TrfTXl44Q0Fotu3PkvICgCMf2E9+989XmYcRWkyMm3+GzgMlhL4fIALQfijZpVM9Fh9XLBGja2Gx/qgKNIhtihY2Idnld39tBwFXmS8PIknOrCYjrNKjjosPrOAKaE24WS0Q48uUQGwKWAvM2kT+EvVoBJvPLAYSb1Kzrov21B6CLFh2lFkAXXddaAF10XWsBdNF1rQXQRdexLnb/DyKGUihdXPVTAAAAAElFTkSuQmCC;" vertex="1" parent="1">
          <mxGeometry x="-110" y="-1150" width="78" height="28.79" as="geometry" />
        </mxCell>
        <mxCell id="Uc-f4Ewm9fvxlKjvNhb2-44" value="" style="rounded=1;whiteSpace=wrap;html=1;absoluteArcSize=1;arcSize=14;strokeWidth=2;fillColor=none;" vertex="1" parent="1">
          <mxGeometry x="-820" y="-1160" width="810" height="520" as="geometry" />
        </mxCell>
        <mxCell id="Uc-f4Ewm9fvxlKjvNhb2-46" value="" style="edgeStyle=orthogonalEdgeStyle;rounded=0;orthogonalLoop=1;jettySize=auto;html=1;" edge="1" parent="1" source="Uc-f4Ewm9fvxlKjvNhb2-47" target="Uc-f4Ewm9fvxlKjvNhb2-50">
          <mxGeometry relative="1" as="geometry" />
        </mxCell>
        <mxCell id="Uc-f4Ewm9fvxlKjvNhb2-47" value="" style="shape=cylinder3;whiteSpace=wrap;html=1;boundedLbl=1;backgroundOutline=1;size=15;" vertex="1" parent="1">
          <mxGeometry x="-750" y="-470" width="60" height="80" as="geometry" />
        </mxCell>
        <mxCell id="Uc-f4Ewm9fvxlKjvNhb2-48" value="" style="edgeStyle=orthogonalEdgeStyle;rounded=0;orthogonalLoop=1;jettySize=auto;html=1;" edge="1" parent="1" source="Uc-f4Ewm9fvxlKjvNhb2-50" target="Uc-f4Ewm9fvxlKjvNhb2-52">
          <mxGeometry relative="1" as="geometry" />
        </mxCell>
        <mxCell id="Uc-f4Ewm9fvxlKjvNhb2-49" value="" style="edgeStyle=orthogonalEdgeStyle;rounded=0;orthogonalLoop=1;jettySize=auto;html=1;" edge="1" parent="1" source="Uc-f4Ewm9fvxlKjvNhb2-50" target="Uc-f4Ewm9fvxlKjvNhb2-57">
          <mxGeometry relative="1" as="geometry" />
        </mxCell>
        <mxCell id="Uc-f4Ewm9fvxlKjvNhb2-50" value="" style="shape=image;html=1;verticalLabelPosition=bottom;verticalAlign=top;imageAspect=0;image=img/clipart/Gear_128x128.png" vertex="1" parent="1">
          <mxGeometry x="-640" y="-320" width="30" height="30" as="geometry" />
        </mxCell>
        <mxCell id="Uc-f4Ewm9fvxlKjvNhb2-51" value="" style="edgeStyle=orthogonalEdgeStyle;rounded=0;orthogonalLoop=1;jettySize=auto;html=1;" edge="1" parent="1" source="Uc-f4Ewm9fvxlKjvNhb2-52" target="Uc-f4Ewm9fvxlKjvNhb2-56">
          <mxGeometry relative="1" as="geometry" />
        </mxCell>
        <mxCell id="Uc-f4Ewm9fvxlKjvNhb2-52" value="" style="shape=cylinder3;whiteSpace=wrap;html=1;boundedLbl=1;backgroundOutline=1;size=15;" vertex="1" parent="1">
          <mxGeometry x="-530" y="-345" width="60" height="80" as="geometry" />
        </mxCell>
        <mxCell id="Uc-f4Ewm9fvxlKjvNhb2-53" value="" style="edgeStyle=orthogonalEdgeStyle;rounded=0;orthogonalLoop=1;jettySize=auto;html=1;entryX=1;entryY=0.5;entryDx=0;entryDy=0;entryPerimeter=0;" edge="1" parent="1" source="Uc-f4Ewm9fvxlKjvNhb2-56" target="Uc-f4Ewm9fvxlKjvNhb2-57">
          <mxGeometry relative="1" as="geometry">
            <mxPoint x="-350" y="-210" as="sourcePoint" />
            <mxPoint x="-725" y="-169.9999999999999" as="targetPoint" />
            <Array as="points">
              <mxPoint x="-365" y="-170" />
            </Array>
          </mxGeometry>
        </mxCell>
        <mxCell id="Uc-f4Ewm9fvxlKjvNhb2-54" value="" style="shape=cylinder3;whiteSpace=wrap;html=1;boundedLbl=1;backgroundOutline=1;size=15;" vertex="1" parent="1">
          <mxGeometry x="-250" y="-300" width="60" height="80" as="geometry" />
        </mxCell>
        <mxCell id="Uc-f4Ewm9fvxlKjvNhb2-55" value="" style="edgeStyle=orthogonalEdgeStyle;rounded=0;orthogonalLoop=1;jettySize=auto;html=1;" edge="1" parent="1" source="Uc-f4Ewm9fvxlKjvNhb2-56" target="Uc-f4Ewm9fvxlKjvNhb2-54">
          <mxGeometry relative="1" as="geometry" />
        </mxCell>
        <mxCell id="Uc-f4Ewm9fvxlKjvNhb2-56" value="" style="shape=image;html=1;verticalLabelPosition=bottom;verticalAlign=top;imageAspect=0;image=img/clipart/Gear_128x128.png" vertex="1" parent="1">
          <mxGeometry x="-380" y="-290" width="30" height="30" as="geometry" />
        </mxCell>
        <mxCell id="Uc-f4Ewm9fvxlKjvNhb2-57" value="" style="shape=cylinder3;whiteSpace=wrap;html=1;boundedLbl=1;backgroundOutline=1;size=15;" vertex="1" parent="1">
          <mxGeometry x="-655" y="-210" width="60" height="80" as="geometry" />
        </mxCell>
        <mxCell id="Uc-f4Ewm9fvxlKjvNhb2-58" value="&lt;font style=&quot;vertical-align: inherit;&quot;&gt;&lt;font style=&quot;vertical-align: inherit;&quot;&gt;&lt;font style=&quot;vertical-align: inherit;&quot;&gt;&lt;font style=&quot;vertical-align: inherit;&quot;&gt;&lt;font style=&quot;vertical-align: inherit;&quot;&gt;&lt;font style=&quot;vertical-align: inherit;&quot;&gt;BD Relacional&lt;/font&gt;&lt;/font&gt;&lt;/font&gt;&lt;/font&gt;&lt;/font&gt;&lt;/font&gt;&lt;div&gt;&lt;font style=&quot;vertical-align: inherit;&quot;&gt;&lt;font style=&quot;vertical-align: inherit;&quot;&gt;&lt;font style=&quot;vertical-align: inherit;&quot;&gt;&lt;font style=&quot;vertical-align: inherit;&quot;&gt;&lt;font style=&quot;vertical-align: inherit;&quot;&gt;&lt;font style=&quot;vertical-align: inherit;&quot;&gt;&lt;font style=&quot;vertical-align: inherit;&quot;&gt;&lt;font style=&quot;vertical-align: inherit;&quot;&gt;[base_analítica]&lt;/font&gt;&lt;/font&gt;&lt;/font&gt;&lt;/font&gt;&lt;/font&gt;&lt;/font&gt;&lt;/font&gt;&lt;/font&gt;&lt;/div&gt;" style="text;strokeColor=none;align=center;fillColor=none;html=1;verticalAlign=middle;whiteSpace=wrap;rounded=0;" vertex="1" parent="1">
          <mxGeometry x="-750" y="-530" width="60" height="30" as="geometry" />
        </mxCell>
        <mxCell id="Uc-f4Ewm9fvxlKjvNhb2-59" value="&lt;font style=&quot;vertical-align: inherit;&quot;&gt;&lt;font style=&quot;vertical-align: inherit;&quot;&gt;&lt;font style=&quot;vertical-align: inherit;&quot;&gt;&lt;font style=&quot;vertical-align: inherit;&quot;&gt;&lt;font style=&quot;vertical-align: inherit;&quot;&gt;&lt;font style=&quot;vertical-align: inherit;&quot;&gt;&lt;font style=&quot;vertical-align: inherit;&quot;&gt;&lt;font style=&quot;vertical-align: inherit;&quot;&gt;Procedure&lt;/font&gt;&lt;/font&gt;&lt;/font&gt;&lt;/font&gt;&lt;/font&gt;&lt;/font&gt;&lt;/font&gt;&lt;/font&gt;" style="text;strokeColor=none;align=center;fillColor=none;html=1;verticalAlign=middle;whiteSpace=wrap;rounded=0;" vertex="1" parent="1">
          <mxGeometry x="-710" y="-320" width="60" height="30" as="geometry" />
        </mxCell>
        <mxCell id="Uc-f4Ewm9fvxlKjvNhb2-60" value="&lt;font style=&quot;vertical-align: inherit;&quot;&gt;&lt;font style=&quot;vertical-align: inherit;&quot;&gt;&lt;font style=&quot;vertical-align: inherit;&quot;&gt;&lt;font style=&quot;vertical-align: inherit;&quot;&gt;&lt;font style=&quot;vertical-align: inherit;&quot;&gt;&lt;font style=&quot;vertical-align: inherit;&quot;&gt;&lt;font style=&quot;vertical-align: inherit;&quot;&gt;&lt;font style=&quot;vertical-align: inherit;&quot;&gt;&lt;font style=&quot;vertical-align: inherit;&quot;&gt;&lt;font style=&quot;vertical-align: inherit;&quot;&gt;BD_Temp (NI)&lt;/font&gt;&lt;/font&gt;&lt;/font&gt;&lt;/font&gt;&lt;/font&gt;&lt;/font&gt;&lt;/font&gt;&lt;/font&gt;&lt;/font&gt;&lt;/font&gt;&lt;div&gt;&lt;font style=&quot;vertical-align: inherit;&quot;&gt;&lt;font style=&quot;vertical-align: inherit;&quot;&gt;&lt;font style=&quot;vertical-align: inherit;&quot;&gt;&lt;font style=&quot;vertical-align: inherit;&quot;&gt;&lt;font style=&quot;vertical-align: inherit;&quot;&gt;&lt;font style=&quot;vertical-align: inherit;&quot;&gt;&lt;font style=&quot;vertical-align: inherit;&quot;&gt;&lt;font style=&quot;vertical-align: inherit;&quot;&gt;&lt;font style=&quot;vertical-align: inherit;&quot;&gt;&lt;font style=&quot;vertical-align: inherit;&quot;&gt;&lt;font style=&quot;vertical-align: inherit;&quot;&gt;&lt;font style=&quot;vertical-align: inherit;&quot;&gt;- Temporárias&lt;br&gt;- De/Para&lt;/font&gt;&lt;/font&gt;&lt;/font&gt;&lt;/font&gt;&lt;/font&gt;&lt;/font&gt;&lt;/font&gt;&lt;/font&gt;&lt;/font&gt;&lt;/font&gt;&lt;/font&gt;&lt;/font&gt;&lt;/div&gt;" style="text;strokeColor=none;align=center;fillColor=none;html=1;verticalAlign=middle;whiteSpace=wrap;rounded=0;" vertex="1" parent="1">
          <mxGeometry x="-540" y="-390" width="80" height="30" as="geometry" />
        </mxCell>
        <mxCell id="Uc-f4Ewm9fvxlKjvNhb2-61" value="&lt;font style=&quot;vertical-align: inherit;&quot;&gt;&lt;font style=&quot;vertical-align: inherit;&quot;&gt;&lt;font style=&quot;vertical-align: inherit;&quot;&gt;&lt;font style=&quot;vertical-align: inherit;&quot;&gt;&lt;font style=&quot;vertical-align: inherit;&quot;&gt;&lt;font style=&quot;vertical-align: inherit;&quot;&gt;&lt;font style=&quot;vertical-align: inherit;&quot;&gt;&lt;font style=&quot;vertical-align: inherit;&quot;&gt;Procedure&lt;/font&gt;&lt;/font&gt;&lt;/font&gt;&lt;/font&gt;&lt;/font&gt;&lt;/font&gt;&lt;/font&gt;&lt;/font&gt;" style="text;strokeColor=none;align=center;fillColor=none;html=1;verticalAlign=middle;whiteSpace=wrap;rounded=0;" vertex="1" parent="1">
          <mxGeometry x="-426" y="-260" width="60" height="30" as="geometry" />
        </mxCell>
        <mxCell id="Uc-f4Ewm9fvxlKjvNhb2-62" value="&lt;font style=&quot;vertical-align: inherit;&quot;&gt;&lt;font style=&quot;vertical-align: inherit;&quot;&gt;&lt;font style=&quot;vertical-align: inherit;&quot;&gt;&lt;font style=&quot;vertical-align: inherit;&quot;&gt;&lt;font style=&quot;vertical-align: inherit;&quot;&gt;&lt;font style=&quot;vertical-align: inherit;&quot;&gt;&lt;font style=&quot;vertical-align: inherit;&quot;&gt;&lt;font style=&quot;vertical-align: inherit;&quot;&gt;BD-DW &lt;/font&gt;&lt;/font&gt;&lt;br&gt;&lt;font style=&quot;vertical-align: inherit;&quot;&gt;&lt;font style=&quot;vertical-align: inherit;&quot;&gt;- Dimensões&amp;nbsp; &lt;/font&gt;&lt;/font&gt;&lt;br&gt;&lt;font style=&quot;vertical-align: inherit;&quot;&gt;&lt;font style=&quot;vertical-align: inherit;&quot;&gt;- Fatos&lt;/font&gt;&lt;/font&gt;&lt;/font&gt;&lt;/font&gt;&lt;/font&gt;&lt;/font&gt;&lt;/font&gt;&lt;/font&gt;" style="text;strokeColor=none;align=center;fillColor=none;html=1;verticalAlign=middle;whiteSpace=wrap;rounded=0;" vertex="1" parent="1">
          <mxGeometry x="-180" y="-275" width="80" height="30" as="geometry" />
        </mxCell>
        <mxCell id="Uc-f4Ewm9fvxlKjvNhb2-63" value="&lt;font style=&quot;vertical-align: inherit;&quot;&gt;&lt;font style=&quot;vertical-align: inherit;&quot;&gt;BD_Metadados_Log&lt;br&gt;- Metadados&lt;/font&gt;&lt;/font&gt;&lt;div&gt;&lt;font style=&quot;vertical-align: inherit;&quot;&gt;&lt;font style=&quot;vertical-align: inherit;&quot;&gt;&lt;font style=&quot;vertical-align: inherit;&quot;&gt;&lt;font style=&quot;vertical-align: inherit;&quot;&gt;- Logs de carga&lt;/font&gt;&lt;/font&gt;&lt;/font&gt;&lt;/font&gt;&lt;/div&gt;" style="text;strokeColor=none;align=center;fillColor=none;html=1;verticalAlign=middle;whiteSpace=wrap;rounded=0;" vertex="1" parent="1">
          <mxGeometry x="-665" y="-110" width="80" height="30" as="geometry" />
        </mxCell>
        <mxCell id="Uc-f4Ewm9fvxlKjvNhb2-64" value="&lt;font style=&quot;vertical-align: inherit;&quot;&gt;&lt;font style=&quot;vertical-align: inherit;&quot;&gt;&lt;font style=&quot;vertical-align: inherit;&quot;&gt;&lt;font style=&quot;vertical-align: inherit;&quot;&gt;Cenário N2 - todo o processo de ETL será executado fora do ambiente MySQL&lt;/font&gt;&lt;/font&gt;&lt;/font&gt;&lt;/font&gt;&lt;div&gt;&lt;font style=&quot;vertical-align: inherit;&quot;&gt;&lt;font style=&quot;vertical-align: inherit;&quot;&gt;&lt;font style=&quot;vertical-align: inherit;&quot;&gt;&lt;font style=&quot;vertical-align: inherit;&quot;&gt;&lt;br&gt;&lt;/font&gt;&lt;/font&gt;&lt;/font&gt;&lt;/font&gt;&lt;/div&gt;" style="text;strokeColor=none;align=center;fillColor=none;html=1;verticalAlign=middle;whiteSpace=wrap;rounded=0;" vertex="1" parent="1">
          <mxGeometry x="-160" y="-470" width="157" height="30" as="geometry" />
        </mxCell>
        <mxCell id="Uc-f4Ewm9fvxlKjvNhb2-65" value="&lt;font style=&quot;vertical-align: inherit;&quot;&gt;&lt;font style=&quot;vertical-align: inherit;&quot;&gt;&lt;font style=&quot;vertical-align: inherit;&quot;&gt;&lt;font style=&quot;vertical-align: inherit;&quot;&gt;Camada que antecede o DW com o objetivo de tratar e validar os dados&lt;/font&gt;&lt;/font&gt;&lt;/font&gt;&lt;/font&gt;" style="text;strokeColor=none;align=center;fillColor=none;html=1;verticalAlign=middle;whiteSpace=wrap;rounded=0;" vertex="1" parent="1">
          <mxGeometry x="-425" y="-380" width="80" height="30" as="geometry" />
        </mxCell>
        <mxCell id="Uc-f4Ewm9fvxlKjvNhb2-66" value="&lt;font style=&quot;vertical-align: inherit;&quot;&gt;&lt;font style=&quot;vertical-align: inherit;&quot;&gt;&lt;font style=&quot;vertical-align: inherit;&quot;&gt;&lt;font style=&quot;vertical-align: inherit;&quot;&gt;&lt;font style=&quot;vertical-align: inherit;&quot;&gt;&lt;font style=&quot;vertical-align: inherit;&quot;&gt;Durante o processo de carga [logs e metadados] serão armazenados nesta base&amp;nbsp;&lt;/font&gt;&lt;/font&gt;&lt;/font&gt;&lt;/font&gt;&lt;/font&gt;&lt;/font&gt;" style="text;strokeColor=none;align=center;fillColor=none;html=1;verticalAlign=middle;whiteSpace=wrap;rounded=0;" vertex="1" parent="1">
          <mxGeometry x="-796" y="-108" width="80" height="30" as="geometry" />
        </mxCell>
        <mxCell id="Uc-f4Ewm9fvxlKjvNhb2-67" value="" style="strokeWidth=2;html=1;shape=mxgraph.flowchart.annotation_2;align=left;labelPosition=right;pointerEvents=1;" vertex="1" parent="1">
          <mxGeometry x="-716" y="-115" width="35" height="40" as="geometry" />
        </mxCell>
        <mxCell id="Uc-f4Ewm9fvxlKjvNhb2-68" value="" style="strokeWidth=2;html=1;shape=mxgraph.flowchart.annotation_2;align=left;labelPosition=right;pointerEvents=1;rotation=-180;" vertex="1" parent="1">
          <mxGeometry x="-460" y="-397" width="35" height="40" as="geometry" />
        </mxCell>
        <mxCell id="Uc-f4Ewm9fvxlKjvNhb2-69" value="" style="shape=image;verticalLabelPosition=bottom;labelBackgroundColor=default;verticalAlign=top;aspect=fixed;imageAspect=0;image=data:image/png,iVBORw0KGgoAAAANSUhEUgAAAKgAAAA+CAYAAAC/dFDqAAAAAXNSR0IArs4c6QAAAARnQU1BAACxjwv8YQUAAAAJcEhZcwAADsMAAA7DAcdvqGQAABVDSURBVHhe7Zzty2XXWcb9+Aj6JwgKggiKRVDwhfghptJqk+nLxNS2oTVppmmCaZ3pEBuLdJK2DukkM5lYpqGxjQ2laNQ2UCyUQrRVUUGKGBA0mFoURLDFD5piZXv9rnXf+6y99zrn7HOemSfztHvDxd5n77Xue7389r1eznme7zq462K36JjoVOPeWj1mffcdj+yktq1dVPzu63+oC90C6LetXg5Ah3Du43+oBdDjJUfQC9P7a0XaBOXCqPPbOrjj0Sr/rloA/Q6XgDu1A6Bve1DpL+l6PqCppr091LI9Xwugx0y7AXrvxz7THdz+UB952xCsV8vmrmrZna8F0GOmHSNoynn2AZRhumFvB7XsztcC6DHTIQCV2hCs1wLoot3FcL0rpCfOKs/D7vASSWu1wCjKhU7T5hyFz5bteVoAPWYKWNTx02czlJH0zvNF1xpQaQH0O02OoOfbz7Zpb0B3jNgjtWzP0wLo8ZLhVPQUoADWTDNHAequC6emrR3VsrteC6DHSxk9rUNEtT0APXgr50P4bKjlZ6gF0OMnQxpqPd9Ftz/UgKItvmHyuWXnEBr7GWoB9Bgq54UhVujNdPPUBmO9WjYOo5aPlRZAj6GGgB79sHuUkC6AHkMNAS1qpdtPbVBaOooXYwH0GKoF6OPlO/dm+t3UBqWlsl3VsrGXYo479rEA+m2jqxPRppCsU+ynXsVI2vKxALpooikoU/l3o94FEKBsQRFNX3N3095cTf0sgC5qaArKVGVqcXWH+amfBdBFDU1Bmco/hPZvAq6LIX48KU+N09Sfd9HYbsi/Bm+lv97UKPtOatmsNSfN1dMUlKlW32pN8++rqZ8WoP4KjAbRylDyHOPkmanedL+eR1oV9Hvv+YCuR7aayk7BPmfZ4E8TsFfbv+2B7uB1OvtrOfLhC43tHYVUTuZcmmv57PJkPbiOoY6V9BzRsXedK3I7qi1cT75nR1FX3wMCxH35ogxzNclff+aaKCibtL/bNv+GiK9A+SxoPITzeQpP3h+21f5q+WhE0FIwF1yA3PzeS91Tn//z7q/+6avd8//xX9YXdH37hSf93BVw5alIbWeTElBdC8ZXvONs9+FPP9v99b983fY5P/t3X+3e98nPlQ4EVnfY2M5RiTZRed/+uzpT9nPdD956orvxjtd3bzj9+u7tp092d55+dffu95yYJdLn+Vfvf4fqCLRRv4QGvwb6TPdDb31Ld8OpW3pfc3Ty3l92HvJiwxD65cI+wt/DbnvS3/fe1/Z5b373u1Z/z6Q09PEUnpWm7bWfprabETTeGoHzxJ/8afc/Xdd9q3tpom/q/pN/8ZUS7Zw3gJuj7ADBRwMBJX6Kr3Jw5vML3/yWX5LyJmfEOmoFoAKGDn/kw2/q/ubKT1ovXPlh62tXvn+2/vGJH+jPz33qpu6Vp253Z5Q2ROe6H3/zqe43Tv9i9+yVk/ZDWpT+5ugrH3+F7X/iUgHPfUVkxUdEU0AmXW37Dz+h1fhtp/Q8QI5IuU7tNttdU9vrhni9Pb909pG1cHb/Jzz/t0DkP8wiAswF1FGi+Dg4ea8jc8IJ9D5ku5eOz/7Di/7O+Wo2xm7Si6EoRAT77KWf6P7t0kH3749Oxf05qvM8/9GfqQAt0ZnIB5hAXKcf512n3tfllfDzkcvvNPhl+C8v/cm7fsFwfuNDq/x/9OjPB6AFzvYm+krtNttPQ9tNQBWpFNkYXg1MwJiwDK51EP38ZroyI1stGVBNCeSDacLqJdCRtmvpIIoWHyNbRyQ6kuE84aQzEwA6lwiUEXWbMu2ffeQGn4lwN91zuvhSuxChn7p80wSwrz3+fY5uta1NIi1lqyHn3uWLv1baEugCUNJQJ3xwjf8CKKMW/cpapAZnqHF7HUZD2+vmoIqIAGpoBGie//7Ff+6+rss6kvLM81HmS+TPCGlbrSFZ93iu6PnCv/6nIVzZesk+sNlHU93vAWUOZZtpFz+psD14vkUZIbLMfYfwHBsx5Opl+q1fF5zAEp2NgIyhE3gRcM0RUawW9h1BNddmWAcUvwTyhx98ElHxRbQda2yPe4D3ofOv8gtRgw68DOtlmL9YAJU//CTM+PK81W2kYKK2GIKzTqvF1b4a22sAqo4JQBOQBPTzz33RSkATJBZN5WdfyuvODlsGKu2mlEbDO/NK29VBFMU+57OPXbTNJqDkT/u1WvcHPtcp4YyFg+9VYFaAPvHgDT0s2ZnMRf3tSa7M1ZmeK9OpIT5PFB256lCddZ+XNv30wARUQFemUpHWL1TkHdgrHZuLK+wRSRNQoui7Hr6npJOdBJR6JagrQOlPAG3NDzdr2M7zNbSzI6CAyHBUomgRB58BjrmNG6cHhM6ubSM9V6f+wd8+XzLrKMN85/ko9rluAppRbgAD91BCEfcmfluiA1RuOp552Vt0j7NBqMq+BlBWvrxs7hBH3wpqbCFe0jliy0nDKvO/9IMPZGBUBtsNKK287tsA0QaUu2wR3vrGnyuAZrkFoV8sv1QXrhmgaNXO8zW0MRNQS4cj5Q23ehuIw4B6iO68FXVw8/tKY/dRbAyohgpBxcrdFgz/SwYUveejv+9n2LNtjgGg2BUI6iwWcbX8gvTw1j43iej4UHfy/Ke6ux97prvnkWd8ZuGHzf4FEDwTQNWZBjTAdlquRxo2eIi03kIq8ucAlHmu/RDx5AuxCi/AKE22bS2381Q1oFl2BKD45Pm1BBRN23yzhvn3AfTGO9yJHAkozwHO+4R0TD9cNmxrnsX2FEdOFbDuxZYiaz/0h0+er4b4AjjpuJcHKfE/mAvPkgDV1IR65YFVbH3wc18uUcsAbACUKKl6lw6nQ1THOjJmJE01oY3oVwFqaAJSA6p2KyDzwtSSTepRiz7ws3MGsAc0hnkDik+V7xgCKgnQD378M+6wBIXDgBIl1XEGJOGNNEDtDqAhXTEqSKNm4+nz684YgIQTIIieziu/RC4fssmzIaBqVDpSNpgO9IfSYgNAqdT8hinl6W1FXeryOJ3mho+//0QP5xCcU8VnAhpgZiMnSL4GHFSB6s/5BYD89IAyvAsY1ANK+nH09AukvAPFPT171dtebUATTsqdgGLvWgOK3CZ9m2/WMO8Y0KzwNkDVqXzz4yOeA5OjYPwXiwJTDLvAybWeYTfBS0ANoBvkYnfrmd/BnO1OAPUcS9J1QkUa0lKKBHRQp41SB2wB1PY0z2SoZC+RDkSssllw5CY4HZ2r+VrsabLAYcHirRtB6CjvTlO7ALMjo65VrxpQgOoB9Rw04Zsj0j5mQClnD6i0AvTaD/EtlbqX8qVa6fYHlE12VeDFb/x3PCkHHcvw78hjWwClCgpOd4KG5j5P7HGSh2+sSoS4MIigaCOgMf8l3RBQKh112iilmwMo6QQXW01s2ySkBkmdSoTiPgCPBRyIlTjbUiyCANrbS56OaDEzG9BWHdapdPwE0EEEfXkAna89AXWDqmNZGPWHYCElC6iDV94nO7looYOxeb8XQb01AJUY7lkYlQYrCx6gc7omoGqwCqoWoNgZ1Gut2oBiawCo2oQ6AxXfubORDZCGSB1Lp9L5Ce02AQwQeD/S4DH9WQCd6jCAKs2PvflMASQOYCL6MEx7bpWrToZ7DW3kTwASaH+NybBHJFGhElDskHYboAY9bOYiCTuDeq3VTECpBwB5rlh+KAKozEuJiEBFdGyJZ8BsSARBfqUIDDw3pBFJjwRQ6fgCmqoABZA8DKi/E1enMY+I/cyMYoZFB/cKULGa1/D9xgev9IujBIHP3h5iykBjCOoENG1OAZUEVU4VeE7aBLQMl3TOqE5NzQQ0RwK/wPEZaOnEWswxRyLqMhcF6NzjRAnLF54WDKSlrXTuAQWaSLMCVL6z3C5LlMMQcY/nEn0TZR4skgQhZwAtC7ctgMb8mHRtgLYrF4PuF/aMw55fSoIJ9ykvvkZ5SdcGVBlnAapGA7CMdj5Gw7YbT3AlyAWoYtP2BHlpWPmtAPUxAVS2SHvkgOK3JSDQuWr4oUpDO43aChjGWz4rQFWeOYBGh5c6MjUIWH2OurNLEGW7HgC1KJPLO9V6+4cAFLkRBNiggwUowHofUZGThu035mM4RqTxkOwFF0Oc/G4FFJ9HC6ihALCJlN8jBL7CX0SCWqU86gh10GDTPOBbB2g+Rz2gBlG21O60qfNJXnDFtcsSUxHKeShAZevQgFJev1Rqxxhl+h2NauR0W03y7wsojZ6wyAmLH4Bz2jFUEqv0HjoOpfGWFAVWI7rw+D2OgNai0+2f+hSVuhVAcz64P6DYOucO5vt08tbzXT7zk8DSrvTR4QF1XdVWU3jmKOqusmSZH37i7l7+sbZfqoR4mn+/OagBRUpLoymKAlwNKBHTW056BmCrZ9jsvI+ajf7yAEqaXQGtrisIVwqblWjokr58q3MoQOWj2DvvhRrfbuUCyHkEGT/fYxur9FEBtF8k7QwocFEvlW00MmyTy8k17aB6USb88mstvoE7deeP+HP/FwXRVkM1AZVBZaCD+k6Lw4DGKj7lPLr3/qefK4kCKgCl4wG9t6AhHpgMnAulBnBHRiNsA5R0vBhAz0/14jnRG3/+8bSAc8MwbNSKRqtl/3rhekCZgkgJqF8cdVD5eytW8vocHVDKMpLrUVTahms6ufzOk31UolkO8zUM9qWOZCEFRMCS21hERxZangrZFxFb9pWezu6nDUCmPOy5AsTBa26xzwQP8dy/CfWcsCyiSJ/58c1nvmDoh2D1zarN4sXL/lfd+mu3C30q27pPuyFeJn4s/bO3/Kh/rU9d2AHBd/8j6rRb9c9GQIlwBmUboDQaACiPo1oFDTm5V9vh2hvzPaD4pCN1lp1NgBZg5FPRpN+Dxa6EdaI40w22v0iT57WiA06WX/X7WAMo6Zjz5bdDfDOU19tEJxCl+G0mHW8IJIAgshFF/AKoQykTf6vUbzEFoJz/8sk3+Bmg06GIa+a1n3xn+UrUaeMMtIDt4b3ySRlee18ZVqkfNtjXxUdCTFpeFKIdZacOALurPE9W2+Hvwcu/2X3PLT/dPfX0r7gtqDe+eVn8g23DvSOgPgIsjhagFh2pSAR4PgKsPm985hORztEIqB0JcshcAUq6hHoKaBkuUQ7z9hO+yIePXZRltc8WoIpwNCj7mbsKCDkDSkYy/3pdQDC8A3F5QanT4wYPOHhuQGNo5hpbfDsFZMDHGXGvhtCQRRRO0MmL/PdG/fyy1A0IsVMDSl7Sp4+x6m/LUvmMfLxQfhEUwHihiZQAytyTLTfmo0R47vd/UXA1AS3DTYErQaWyA2g4iEru/DLs+w/tBHOJngCgfIZOvgUo21bkbAGaw6jB0ZtJhOSvP7FrbxEBM992FT/kTTUBve2B7tMfWO1h7qIEx50uUAAVYIla3qTnSwpW3bQDbaJ6EbF47ugnwFp2ke0CcECcZ57ly5DpgIbpBC8AnV/WD/Gya6oApEAFYBl16/z1da/0XckvlZ7hzws2tR+REhDxQSQFTM585j7+XZ6rBaiHxh7QApgB1X1+U7nKUQ4gYMh3fheGFW+Zm7mB3DnyHYCOjxWgrPjVuMyf8E9ezTnJw5DPvBTfCR7Ko743fkbZ6l2ICaDyxUIlAaPzOc9V5qPzAc8d53ag7Uq7uf74cluUlXpu7hOd6PBURkYDoesUPjJa88xABTT4JoK57RBtb38SL4j6HJ8M6/gkQtd+sy6bRBkyPf68AGKk1AvOSEH0ZHin/syNgdN/KaA07lfYG0A6BtQUF2D4ES+wpViRc89zN6VJIyVvMexr9j7V4Jf++EuOlmzQsyfqPU9DRgdU6XMnQPcNue43/VIulw2oSY9fpGtgZU4bYpowFhCPxbdbzJP4OygOIAVQzgCK3VKmcx6GiHg7S1GCc/2LJhrebdcv3MrnsVwvjUrko4Oxw+JnnexLAmx2AwAlIQWgjKDuA8SL4bYv7Zh19csj1X5bArRa6Z/rnIP6Jaefoh5Ay/DO2e1hnhSs+rao1YigufIqMKjAbqSQK1Qql0ZyclsUix7S5UIEYAPakhfAhj4LpDyjMpIgs22Aw6/f9vDrRiQdvpD8Rr5sDKdxw6+mH+UedmrpXvVFg6PqCFCXO/zYhj7X9vLeqn4jZXqXLdqo2RljUX5sqJy0EZGISBO+a03865oXYjxNIMIBqaMW6SmL2wFfKfqi7OnaVnIwFvfH4r7txrXts86QLfpF9XI9sqzux01t0hri685L2YgEjChCci07ZujgnIVywSgkdvPf41AZ7NU+UTRI75uOCb+W7GSjOQ15o0z2V+SyZDnzOWfKlcJWXt94h1f/9TEA1D7xR124pqx0YPjXuW8DpxvJ5WbYihdINjP9ZimtOzJesszvTh0p6ks+X6tepM290hpS5ofMNYlwDiDZTyED35d/3DdbFG2SZS3lHQE8EM8z7bj+pQ4TQPPh4H40QN+pboCp/Cwbyp2Xigr2b1bp2F5uhGyUuvCRP/07LZ0uOzQuCwymDURozigjNytV5DQNKQ2/umKRlUN7LrL4zBTADQyMBiWus6yGI8rfi3sjZSfH5wJbu/1qub7eqwRwbJT2y6jZizJm+6SyjHoZGNKZ9z3zsZ9yRGV+SRT97d97oGwDuYy18Em74zcV9irhu69jrarcTgMTfOY+z50/+7iks/R82g7NCBry5wJHIbwUYNUwU2Ort4SCVCHdhZOt7OCxTxecfCp8VjRlW1EpbGDvxFmDxY4BMHFGLKYQq/q8l1tJqfp+LubqVT0HQ74hdqSMod3lpuMoVysaoCxvrXxGHfi8CgKblXnHEXTYdnl/+IxrpI6n3DH/89wyX2zdK/XCTyXnL9D05XA/FDB7cS/7lTNSeW0zXyy3WcWE2y/uhz/Xra/ftA2mgG5RNsbU2GaVwqXatreLygkaNTAQJVh7H7ktpQNYEeC7E7Nh3QmlMVdK2PI6PruMdT3ruq7utdqnrf3aulbtdyLVrZVnqF38t9Juq8Om58cQUNvSUM6WFdETqOqto4yCcw/SE1H5SwDvNGjRtJroy6ejQcK4RYM6rte4ba6lWv5TrfTXl44Q0Fotu3PkvICgCMf2E9+989XmYcRWkyMm3+GzgMlhL4fIALQfijZpVM9Fh9XLBGja2Gx/qgKNIhtihY2Idnld39tBwFXmS8PIknOrCYjrNKjjosPrOAKaE24WS0Q48uUQGwKWAvM2kT+EvVoBJvPLAYSb1Kzrov21B6CLFh2lFkAXXddaAF10XWsBdNF1rQXQRdexLnb/DyKGUihdXPVTAAAAAElFTkSuQmCC;" vertex="1" parent="1">
          <mxGeometry x="-100" y="-540" width="78" height="28.79" as="geometry" />
        </mxCell>
        <mxCell id="Uc-f4Ewm9fvxlKjvNhb2-71" value="" style="shape=image;verticalLabelPosition=bottom;labelBackgroundColor=default;verticalAlign=top;aspect=fixed;imageAspect=0;image=data:image/png,iVBORw0KGgoAAAANSUhEUgAAAKgAAAA+CAYAAAC/dFDqAAAAAXNSR0IArs4c6QAAAARnQU1BAACxjwv8YQUAAAAJcEhZcwAADsMAAA7DAcdvqGQAABVDSURBVHhe7Zzty2XXWcb9+Aj6JwgKggiKRVDwhfghptJqk+nLxNS2oTVppmmCaZ3pEBuLdJK2DukkM5lYpqGxjQ2laNQ2UCyUQrRVUUGKGBA0mFoURLDFD5piZXv9rnXf+6y99zrn7HOemSfztHvDxd5n77Xue7389r1eznme7zq462K36JjoVOPeWj1mffcdj+yktq1dVPzu63+oC90C6LetXg5Ah3Du43+oBdDjJUfQC9P7a0XaBOXCqPPbOrjj0Sr/rloA/Q6XgDu1A6Bve1DpL+l6PqCppr091LI9Xwugx0y7AXrvxz7THdz+UB952xCsV8vmrmrZna8F0GOmHSNoynn2AZRhumFvB7XsztcC6DHTIQCV2hCs1wLoot3FcL0rpCfOKs/D7vASSWu1wCjKhU7T5hyFz5bteVoAPWYKWNTx02czlJH0zvNF1xpQaQH0O02OoOfbz7Zpb0B3jNgjtWzP0wLo8ZLhVPQUoADWTDNHAequC6emrR3VsrteC6DHSxk9rUNEtT0APXgr50P4bKjlZ6gF0OMnQxpqPd9Ftz/UgKItvmHyuWXnEBr7GWoB9Bgq54UhVujNdPPUBmO9WjYOo5aPlRZAj6GGgB79sHuUkC6AHkMNAS1qpdtPbVBaOooXYwH0GKoF6OPlO/dm+t3UBqWlsl3VsrGXYo479rEA+m2jqxPRppCsU+ynXsVI2vKxALpooikoU/l3o94FEKBsQRFNX3N3095cTf0sgC5qaArKVGVqcXWH+amfBdBFDU1Bmco/hPZvAq6LIX48KU+N09Sfd9HYbsi/Bm+lv97UKPtOatmsNSfN1dMUlKlW32pN8++rqZ8WoP4KjAbRylDyHOPkmanedL+eR1oV9Hvv+YCuR7aayk7BPmfZ4E8TsFfbv+2B7uB1OvtrOfLhC43tHYVUTuZcmmv57PJkPbiOoY6V9BzRsXedK3I7qi1cT75nR1FX3wMCxH35ogxzNclff+aaKCibtL/bNv+GiK9A+SxoPITzeQpP3h+21f5q+WhE0FIwF1yA3PzeS91Tn//z7q/+6avd8//xX9YXdH37hSf93BVw5alIbWeTElBdC8ZXvONs9+FPP9v99b983fY5P/t3X+3e98nPlQ4EVnfY2M5RiTZRed/+uzpT9nPdD956orvxjtd3bzj9+u7tp092d55+dffu95yYJdLn+Vfvf4fqCLRRv4QGvwb6TPdDb31Ld8OpW3pfc3Ty3l92HvJiwxD65cI+wt/DbnvS3/fe1/Z5b373u1Z/z6Q09PEUnpWm7bWfprabETTeGoHzxJ/8afc/Xdd9q3tpom/q/pN/8ZUS7Zw3gJuj7ADBRwMBJX6Kr3Jw5vML3/yWX5LyJmfEOmoFoAKGDn/kw2/q/ubKT1ovXPlh62tXvn+2/vGJH+jPz33qpu6Vp253Z5Q2ROe6H3/zqe43Tv9i9+yVk/ZDWpT+5ugrH3+F7X/iUgHPfUVkxUdEU0AmXW37Dz+h1fhtp/Q8QI5IuU7tNttdU9vrhni9Pb909pG1cHb/Jzz/t0DkP8wiAswF1FGi+Dg4ea8jc8IJ9D5ku5eOz/7Di/7O+Wo2xm7Si6EoRAT77KWf6P7t0kH3749Oxf05qvM8/9GfqQAt0ZnIB5hAXKcf512n3tfllfDzkcvvNPhl+C8v/cm7fsFwfuNDq/x/9OjPB6AFzvYm+krtNttPQ9tNQBWpFNkYXg1MwJiwDK51EP38ZroyI1stGVBNCeSDacLqJdCRtmvpIIoWHyNbRyQ6kuE84aQzEwA6lwiUEXWbMu2ffeQGn4lwN91zuvhSuxChn7p80wSwrz3+fY5uta1NIi1lqyHn3uWLv1baEugCUNJQJ3xwjf8CKKMW/cpapAZnqHF7HUZD2+vmoIqIAGpoBGie//7Ff+6+rss6kvLM81HmS+TPCGlbrSFZ93iu6PnCv/6nIVzZesk+sNlHU93vAWUOZZtpFz+psD14vkUZIbLMfYfwHBsx5Opl+q1fF5zAEp2NgIyhE3gRcM0RUawW9h1BNddmWAcUvwTyhx98ElHxRbQda2yPe4D3ofOv8gtRgw68DOtlmL9YAJU//CTM+PK81W2kYKK2GIKzTqvF1b4a22sAqo4JQBOQBPTzz33RSkATJBZN5WdfyuvODlsGKu2mlEbDO/NK29VBFMU+57OPXbTNJqDkT/u1WvcHPtcp4YyFg+9VYFaAPvHgDT0s2ZnMRf3tSa7M1ZmeK9OpIT5PFB256lCddZ+XNv30wARUQFemUpHWL1TkHdgrHZuLK+wRSRNQoui7Hr6npJOdBJR6JagrQOlPAG3NDzdr2M7zNbSzI6CAyHBUomgRB58BjrmNG6cHhM6ubSM9V6f+wd8+XzLrKMN85/ko9rluAppRbgAD91BCEfcmfluiA1RuOp552Vt0j7NBqMq+BlBWvrxs7hBH3wpqbCFe0jliy0nDKvO/9IMPZGBUBtsNKK287tsA0QaUu2wR3vrGnyuAZrkFoV8sv1QXrhmgaNXO8zW0MRNQS4cj5Q23ehuIw4B6iO68FXVw8/tKY/dRbAyohgpBxcrdFgz/SwYUveejv+9n2LNtjgGg2BUI6iwWcbX8gvTw1j43iej4UHfy/Ke6ux97prvnkWd8ZuGHzf4FEDwTQNWZBjTAdlquRxo2eIi03kIq8ucAlHmu/RDx5AuxCi/AKE22bS2381Q1oFl2BKD45Pm1BBRN23yzhvn3AfTGO9yJHAkozwHO+4R0TD9cNmxrnsX2FEdOFbDuxZYiaz/0h0+er4b4AjjpuJcHKfE/mAvPkgDV1IR65YFVbH3wc18uUcsAbACUKKl6lw6nQ1THOjJmJE01oY3oVwFqaAJSA6p2KyDzwtSSTepRiz7ws3MGsAc0hnkDik+V7xgCKgnQD378M+6wBIXDgBIl1XEGJOGNNEDtDqAhXTEqSKNm4+nz684YgIQTIIieziu/RC4fssmzIaBqVDpSNpgO9IfSYgNAqdT8hinl6W1FXeryOJ3mho+//0QP5xCcU8VnAhpgZiMnSL4GHFSB6s/5BYD89IAyvAsY1ANK+nH09AukvAPFPT171dtebUATTsqdgGLvWgOK3CZ9m2/WMO8Y0KzwNkDVqXzz4yOeA5OjYPwXiwJTDLvAybWeYTfBS0ANoBvkYnfrmd/BnO1OAPUcS9J1QkUa0lKKBHRQp41SB2wB1PY0z2SoZC+RDkSssllw5CY4HZ2r+VrsabLAYcHirRtB6CjvTlO7ALMjo65VrxpQgOoB9Rw04Zsj0j5mQClnD6i0AvTaD/EtlbqX8qVa6fYHlE12VeDFb/x3PCkHHcvw78hjWwClCgpOd4KG5j5P7HGSh2+sSoS4MIigaCOgMf8l3RBQKh112iilmwMo6QQXW01s2ySkBkmdSoTiPgCPBRyIlTjbUiyCANrbS56OaDEzG9BWHdapdPwE0EEEfXkAna89AXWDqmNZGPWHYCElC6iDV94nO7looYOxeb8XQb01AJUY7lkYlQYrCx6gc7omoGqwCqoWoNgZ1Gut2oBiawCo2oQ6AxXfubORDZCGSB1Lp9L5Ce02AQwQeD/S4DH9WQCd6jCAKs2PvflMASQOYCL6MEx7bpWrToZ7DW3kTwASaH+NybBHJFGhElDskHYboAY9bOYiCTuDeq3VTECpBwB5rlh+KAKozEuJiEBFdGyJZ8BsSARBfqUIDDw3pBFJjwRQ6fgCmqoABZA8DKi/E1enMY+I/cyMYoZFB/cKULGa1/D9xgev9IujBIHP3h5iykBjCOoENG1OAZUEVU4VeE7aBLQMl3TOqE5NzQQ0RwK/wPEZaOnEWswxRyLqMhcF6NzjRAnLF54WDKSlrXTuAQWaSLMCVL6z3C5LlMMQcY/nEn0TZR4skgQhZwAtC7ctgMb8mHRtgLYrF4PuF/aMw55fSoIJ9ykvvkZ5SdcGVBlnAapGA7CMdj5Gw7YbT3AlyAWoYtP2BHlpWPmtAPUxAVS2SHvkgOK3JSDQuWr4oUpDO43aChjGWz4rQFWeOYBGh5c6MjUIWH2OurNLEGW7HgC1KJPLO9V6+4cAFLkRBNiggwUowHofUZGThu035mM4RqTxkOwFF0Oc/G4FFJ9HC6ihALCJlN8jBL7CX0SCWqU86gh10GDTPOBbB2g+Rz2gBlG21O60qfNJXnDFtcsSUxHKeShAZevQgFJev1Rqxxhl+h2NauR0W03y7wsojZ6wyAmLH4Bz2jFUEqv0HjoOpfGWFAVWI7rw+D2OgNai0+2f+hSVuhVAcz64P6DYOucO5vt08tbzXT7zk8DSrvTR4QF1XdVWU3jmKOqusmSZH37i7l7+sbZfqoR4mn+/OagBRUpLoymKAlwNKBHTW056BmCrZ9jsvI+ajf7yAEqaXQGtrisIVwqblWjokr58q3MoQOWj2DvvhRrfbuUCyHkEGT/fYxur9FEBtF8k7QwocFEvlW00MmyTy8k17aB6USb88mstvoE7deeP+HP/FwXRVkM1AZVBZaCD+k6Lw4DGKj7lPLr3/qefK4kCKgCl4wG9t6AhHpgMnAulBnBHRiNsA5R0vBhAz0/14jnRG3/+8bSAc8MwbNSKRqtl/3rhekCZgkgJqF8cdVD5eytW8vocHVDKMpLrUVTahms6ufzOk31UolkO8zUM9qWOZCEFRMCS21hERxZangrZFxFb9pWezu6nDUCmPOy5AsTBa26xzwQP8dy/CfWcsCyiSJ/58c1nvmDoh2D1zarN4sXL/lfd+mu3C30q27pPuyFeJn4s/bO3/Kh/rU9d2AHBd/8j6rRb9c9GQIlwBmUboDQaACiPo1oFDTm5V9vh2hvzPaD4pCN1lp1NgBZg5FPRpN+Dxa6EdaI40w22v0iT57WiA06WX/X7WAMo6Zjz5bdDfDOU19tEJxCl+G0mHW8IJIAgshFF/AKoQykTf6vUbzEFoJz/8sk3+Bmg06GIa+a1n3xn+UrUaeMMtIDt4b3ySRlee18ZVqkfNtjXxUdCTFpeFKIdZacOALurPE9W2+Hvwcu/2X3PLT/dPfX0r7gtqDe+eVn8g23DvSOgPgIsjhagFh2pSAR4PgKsPm985hORztEIqB0JcshcAUq6hHoKaBkuUQ7z9hO+yIePXZRltc8WoIpwNCj7mbsKCDkDSkYy/3pdQDC8A3F5QanT4wYPOHhuQGNo5hpbfDsFZMDHGXGvhtCQRRRO0MmL/PdG/fyy1A0IsVMDSl7Sp4+x6m/LUvmMfLxQfhEUwHihiZQAytyTLTfmo0R47vd/UXA1AS3DTYErQaWyA2g4iEru/DLs+w/tBHOJngCgfIZOvgUo21bkbAGaw6jB0ZtJhOSvP7FrbxEBM992FT/kTTUBve2B7tMfWO1h7qIEx50uUAAVYIla3qTnSwpW3bQDbaJ6EbF47ugnwFp2ke0CcECcZ57ly5DpgIbpBC8AnV/WD/Gya6oApEAFYBl16/z1da/0XckvlZ7hzws2tR+REhDxQSQFTM585j7+XZ6rBaiHxh7QApgB1X1+U7nKUQ4gYMh3fheGFW+Zm7mB3DnyHYCOjxWgrPjVuMyf8E9ezTnJw5DPvBTfCR7Ko743fkbZ6l2ICaDyxUIlAaPzOc9V5qPzAc8d53ag7Uq7uf74cluUlXpu7hOd6PBURkYDoesUPjJa88xABTT4JoK57RBtb38SL4j6HJ8M6/gkQtd+sy6bRBkyPf68AGKk1AvOSEH0ZHin/syNgdN/KaA07lfYG0A6BtQUF2D4ES+wpViRc89zN6VJIyVvMexr9j7V4Jf++EuOlmzQsyfqPU9DRgdU6XMnQPcNue43/VIulw2oSY9fpGtgZU4bYpowFhCPxbdbzJP4OygOIAVQzgCK3VKmcx6GiHg7S1GCc/2LJhrebdcv3MrnsVwvjUrko4Oxw+JnnexLAmx2AwAlIQWgjKDuA8SL4bYv7Zh19csj1X5bArRa6Z/rnIP6Jaefoh5Ay/DO2e1hnhSs+rao1YigufIqMKjAbqSQK1Qql0ZyclsUix7S5UIEYAPakhfAhj4LpDyjMpIgs22Aw6/f9vDrRiQdvpD8Rr5sDKdxw6+mH+UedmrpXvVFg6PqCFCXO/zYhj7X9vLeqn4jZXqXLdqo2RljUX5sqJy0EZGISBO+a03865oXYjxNIMIBqaMW6SmL2wFfKfqi7OnaVnIwFvfH4r7txrXts86QLfpF9XI9sqzux01t0hri685L2YgEjChCci07ZujgnIVywSgkdvPf41AZ7NU+UTRI75uOCb+W7GSjOQ15o0z2V+SyZDnzOWfKlcJWXt94h1f/9TEA1D7xR124pqx0YPjXuW8DpxvJ5WbYihdINjP9ZimtOzJesszvTh0p6ks+X6tepM290hpS5ofMNYlwDiDZTyED35d/3DdbFG2SZS3lHQE8EM8z7bj+pQ4TQPPh4H40QN+pboCp/Cwbyp2Xigr2b1bp2F5uhGyUuvCRP/07LZ0uOzQuCwymDURozigjNytV5DQNKQ2/umKRlUN7LrL4zBTADQyMBiWus6yGI8rfi3sjZSfH5wJbu/1qub7eqwRwbJT2y6jZizJm+6SyjHoZGNKZ9z3zsZ9yRGV+SRT97d97oGwDuYy18Em74zcV9irhu69jrarcTgMTfOY+z50/+7iks/R82g7NCBry5wJHIbwUYNUwU2Ort4SCVCHdhZOt7OCxTxecfCp8VjRlW1EpbGDvxFmDxY4BMHFGLKYQq/q8l1tJqfp+LubqVT0HQ74hdqSMod3lpuMoVysaoCxvrXxGHfi8CgKblXnHEXTYdnl/+IxrpI6n3DH/89wyX2zdK/XCTyXnL9D05XA/FDB7cS/7lTNSeW0zXyy3WcWE2y/uhz/Xra/ftA2mgG5RNsbU2GaVwqXatreLygkaNTAQJVh7H7ktpQNYEeC7E7Nh3QmlMVdK2PI6PruMdT3ruq7utdqnrf3aulbtdyLVrZVnqF38t9Juq8Om58cQUNvSUM6WFdETqOqto4yCcw/SE1H5SwDvNGjRtJroy6ejQcK4RYM6rte4ba6lWv5TrfTXl44Q0Fotu3PkvICgCMf2E9+989XmYcRWkyMm3+GzgMlhL4fIALQfijZpVM9Fh9XLBGja2Gx/qgKNIhtihY2Idnld39tBwFXmS8PIknOrCYjrNKjjosPrOAKaE24WS0Q48uUQGwKWAvM2kT+EvVoBJvPLAYSb1Kzrov21B6CLFh2lFkAXXddaAF10XWsBdNF1rQXQRdexLnb/DyKGUihdXPVTAAAAAElFTkSuQmCC;" vertex="1" parent="1">
          <mxGeometry x="-244" y="-254.23" width="50" height="18.46" as="geometry" />
        </mxCell>
        <mxCell id="Uc-f4Ewm9fvxlKjvNhb2-72" value="" style="shape=image;verticalLabelPosition=bottom;labelBackgroundColor=default;verticalAlign=top;aspect=fixed;imageAspect=0;image=data:image/png,iVBORw0KGgoAAAANSUhEUgAAAKgAAAA+CAYAAAC/dFDqAAAAAXNSR0IArs4c6QAAAARnQU1BAACxjwv8YQUAAAAJcEhZcwAADsMAAA7DAcdvqGQAABVDSURBVHhe7Zzty2XXWcb9+Aj6JwgKggiKRVDwhfghptJqk+nLxNS2oTVppmmCaZ3pEBuLdJK2DukkM5lYpqGxjQ2laNQ2UCyUQrRVUUGKGBA0mFoURLDFD5piZXv9rnXf+6y99zrn7HOemSfztHvDxd5n77Xue7389r1eznme7zq462K36JjoVOPeWj1mffcdj+yktq1dVPzu63+oC90C6LetXg5Ah3Du43+oBdDjJUfQC9P7a0XaBOXCqPPbOrjj0Sr/rloA/Q6XgDu1A6Bve1DpL+l6PqCppr091LI9Xwugx0y7AXrvxz7THdz+UB952xCsV8vmrmrZna8F0GOmHSNoynn2AZRhumFvB7XsztcC6DHTIQCV2hCs1wLoot3FcL0rpCfOKs/D7vASSWu1wCjKhU7T5hyFz5bteVoAPWYKWNTx02czlJH0zvNF1xpQaQH0O02OoOfbz7Zpb0B3jNgjtWzP0wLo8ZLhVPQUoADWTDNHAequC6emrR3VsrteC6DHSxk9rUNEtT0APXgr50P4bKjlZ6gF0OMnQxpqPd9Ftz/UgKItvmHyuWXnEBr7GWoB9Bgq54UhVujNdPPUBmO9WjYOo5aPlRZAj6GGgB79sHuUkC6AHkMNAS1qpdtPbVBaOooXYwH0GKoF6OPlO/dm+t3UBqWlsl3VsrGXYo479rEA+m2jqxPRppCsU+ynXsVI2vKxALpooikoU/l3o94FEKBsQRFNX3N3095cTf0sgC5qaArKVGVqcXWH+amfBdBFDU1Bmco/hPZvAq6LIX48KU+N09Sfd9HYbsi/Bm+lv97UKPtOatmsNSfN1dMUlKlW32pN8++rqZ8WoP4KjAbRylDyHOPkmanedL+eR1oV9Hvv+YCuR7aayk7BPmfZ4E8TsFfbv+2B7uB1OvtrOfLhC43tHYVUTuZcmmv57PJkPbiOoY6V9BzRsXedK3I7qi1cT75nR1FX3wMCxH35ogxzNclff+aaKCibtL/bNv+GiK9A+SxoPITzeQpP3h+21f5q+WhE0FIwF1yA3PzeS91Tn//z7q/+6avd8//xX9YXdH37hSf93BVw5alIbWeTElBdC8ZXvONs9+FPP9v99b983fY5P/t3X+3e98nPlQ4EVnfY2M5RiTZRed/+uzpT9nPdD956orvxjtd3bzj9+u7tp092d55+dffu95yYJdLn+Vfvf4fqCLRRv4QGvwb6TPdDb31Ld8OpW3pfc3Ty3l92HvJiwxD65cI+wt/DbnvS3/fe1/Z5b373u1Z/z6Q09PEUnpWm7bWfprabETTeGoHzxJ/8afc/Xdd9q3tpom/q/pN/8ZUS7Zw3gJuj7ADBRwMBJX6Kr3Jw5vML3/yWX5LyJmfEOmoFoAKGDn/kw2/q/ubKT1ovXPlh62tXvn+2/vGJH+jPz33qpu6Vp253Z5Q2ROe6H3/zqe43Tv9i9+yVk/ZDWpT+5ugrH3+F7X/iUgHPfUVkxUdEU0AmXW37Dz+h1fhtp/Q8QI5IuU7tNttdU9vrhni9Pb909pG1cHb/Jzz/t0DkP8wiAswF1FGi+Dg4ea8jc8IJ9D5ku5eOz/7Di/7O+Wo2xm7Si6EoRAT77KWf6P7t0kH3749Oxf05qvM8/9GfqQAt0ZnIB5hAXKcf512n3tfllfDzkcvvNPhl+C8v/cm7fsFwfuNDq/x/9OjPB6AFzvYm+krtNttPQ9tNQBWpFNkYXg1MwJiwDK51EP38ZroyI1stGVBNCeSDacLqJdCRtmvpIIoWHyNbRyQ6kuE84aQzEwA6lwiUEXWbMu2ffeQGn4lwN91zuvhSuxChn7p80wSwrz3+fY5uta1NIi1lqyHn3uWLv1baEugCUNJQJ3xwjf8CKKMW/cpapAZnqHF7HUZD2+vmoIqIAGpoBGie//7Ff+6+rss6kvLM81HmS+TPCGlbrSFZ93iu6PnCv/6nIVzZesk+sNlHU93vAWUOZZtpFz+psD14vkUZIbLMfYfwHBsx5Opl+q1fF5zAEp2NgIyhE3gRcM0RUawW9h1BNddmWAcUvwTyhx98ElHxRbQda2yPe4D3ofOv8gtRgw68DOtlmL9YAJU//CTM+PK81W2kYKK2GIKzTqvF1b4a22sAqo4JQBOQBPTzz33RSkATJBZN5WdfyuvODlsGKu2mlEbDO/NK29VBFMU+57OPXbTNJqDkT/u1WvcHPtcp4YyFg+9VYFaAPvHgDT0s2ZnMRf3tSa7M1ZmeK9OpIT5PFB256lCddZ+XNv30wARUQFemUpHWL1TkHdgrHZuLK+wRSRNQoui7Hr6npJOdBJR6JagrQOlPAG3NDzdr2M7zNbSzI6CAyHBUomgRB58BjrmNG6cHhM6ubSM9V6f+wd8+XzLrKMN85/ko9rluAppRbgAD91BCEfcmfluiA1RuOp552Vt0j7NBqMq+BlBWvrxs7hBH3wpqbCFe0jliy0nDKvO/9IMPZGBUBtsNKK287tsA0QaUu2wR3vrGnyuAZrkFoV8sv1QXrhmgaNXO8zW0MRNQS4cj5Q23ehuIw4B6iO68FXVw8/tKY/dRbAyohgpBxcrdFgz/SwYUveejv+9n2LNtjgGg2BUI6iwWcbX8gvTw1j43iej4UHfy/Ke6ux97prvnkWd8ZuGHzf4FEDwTQNWZBjTAdlquRxo2eIi03kIq8ucAlHmu/RDx5AuxCi/AKE22bS2381Q1oFl2BKD45Pm1BBRN23yzhvn3AfTGO9yJHAkozwHO+4R0TD9cNmxrnsX2FEdOFbDuxZYiaz/0h0+er4b4AjjpuJcHKfE/mAvPkgDV1IR65YFVbH3wc18uUcsAbACUKKl6lw6nQ1THOjJmJE01oY3oVwFqaAJSA6p2KyDzwtSSTepRiz7ws3MGsAc0hnkDik+V7xgCKgnQD378M+6wBIXDgBIl1XEGJOGNNEDtDqAhXTEqSKNm4+nz684YgIQTIIieziu/RC4fssmzIaBqVDpSNpgO9IfSYgNAqdT8hinl6W1FXeryOJ3mho+//0QP5xCcU8VnAhpgZiMnSL4GHFSB6s/5BYD89IAyvAsY1ANK+nH09AukvAPFPT171dtebUATTsqdgGLvWgOK3CZ9m2/WMO8Y0KzwNkDVqXzz4yOeA5OjYPwXiwJTDLvAybWeYTfBS0ANoBvkYnfrmd/BnO1OAPUcS9J1QkUa0lKKBHRQp41SB2wB1PY0z2SoZC+RDkSssllw5CY4HZ2r+VrsabLAYcHirRtB6CjvTlO7ALMjo65VrxpQgOoB9Rw04Zsj0j5mQClnD6i0AvTaD/EtlbqX8qVa6fYHlE12VeDFb/x3PCkHHcvw78hjWwClCgpOd4KG5j5P7HGSh2+sSoS4MIigaCOgMf8l3RBQKh112iilmwMo6QQXW01s2ySkBkmdSoTiPgCPBRyIlTjbUiyCANrbS56OaDEzG9BWHdapdPwE0EEEfXkAna89AXWDqmNZGPWHYCElC6iDV94nO7looYOxeb8XQb01AJUY7lkYlQYrCx6gc7omoGqwCqoWoNgZ1Gut2oBiawCo2oQ6AxXfubORDZCGSB1Lp9L5Ce02AQwQeD/S4DH9WQCd6jCAKs2PvflMASQOYCL6MEx7bpWrToZ7DW3kTwASaH+NybBHJFGhElDskHYboAY9bOYiCTuDeq3VTECpBwB5rlh+KAKozEuJiEBFdGyJZ8BsSARBfqUIDDw3pBFJjwRQ6fgCmqoABZA8DKi/E1enMY+I/cyMYoZFB/cKULGa1/D9xgev9IujBIHP3h5iykBjCOoENG1OAZUEVU4VeE7aBLQMl3TOqE5NzQQ0RwK/wPEZaOnEWswxRyLqMhcF6NzjRAnLF54WDKSlrXTuAQWaSLMCVL6z3C5LlMMQcY/nEn0TZR4skgQhZwAtC7ctgMb8mHRtgLYrF4PuF/aMw55fSoIJ9ykvvkZ5SdcGVBlnAapGA7CMdj5Gw7YbT3AlyAWoYtP2BHlpWPmtAPUxAVS2SHvkgOK3JSDQuWr4oUpDO43aChjGWz4rQFWeOYBGh5c6MjUIWH2OurNLEGW7HgC1KJPLO9V6+4cAFLkRBNiggwUowHofUZGThu035mM4RqTxkOwFF0Oc/G4FFJ9HC6ihALCJlN8jBL7CX0SCWqU86gh10GDTPOBbB2g+Rz2gBlG21O60qfNJXnDFtcsSUxHKeShAZevQgFJev1Rqxxhl+h2NauR0W03y7wsojZ6wyAmLH4Bz2jFUEqv0HjoOpfGWFAVWI7rw+D2OgNai0+2f+hSVuhVAcz64P6DYOucO5vt08tbzXT7zk8DSrvTR4QF1XdVWU3jmKOqusmSZH37i7l7+sbZfqoR4mn+/OagBRUpLoymKAlwNKBHTW056BmCrZ9jsvI+ajf7yAEqaXQGtrisIVwqblWjokr58q3MoQOWj2DvvhRrfbuUCyHkEGT/fYxur9FEBtF8k7QwocFEvlW00MmyTy8k17aB6USb88mstvoE7deeP+HP/FwXRVkM1AZVBZaCD+k6Lw4DGKj7lPLr3/qefK4kCKgCl4wG9t6AhHpgMnAulBnBHRiNsA5R0vBhAz0/14jnRG3/+8bSAc8MwbNSKRqtl/3rhekCZgkgJqF8cdVD5eytW8vocHVDKMpLrUVTahms6ufzOk31UolkO8zUM9qWOZCEFRMCS21hERxZangrZFxFb9pWezu6nDUCmPOy5AsTBa26xzwQP8dy/CfWcsCyiSJ/58c1nvmDoh2D1zarN4sXL/lfd+mu3C30q27pPuyFeJn4s/bO3/Kh/rU9d2AHBd/8j6rRb9c9GQIlwBmUboDQaACiPo1oFDTm5V9vh2hvzPaD4pCN1lp1NgBZg5FPRpN+Dxa6EdaI40w22v0iT57WiA06WX/X7WAMo6Zjz5bdDfDOU19tEJxCl+G0mHW8IJIAgshFF/AKoQykTf6vUbzEFoJz/8sk3+Bmg06GIa+a1n3xn+UrUaeMMtIDt4b3ySRlee18ZVqkfNtjXxUdCTFpeFKIdZacOALurPE9W2+Hvwcu/2X3PLT/dPfX0r7gtqDe+eVn8g23DvSOgPgIsjhagFh2pSAR4PgKsPm985hORztEIqB0JcshcAUq6hHoKaBkuUQ7z9hO+yIePXZRltc8WoIpwNCj7mbsKCDkDSkYy/3pdQDC8A3F5QanT4wYPOHhuQGNo5hpbfDsFZMDHGXGvhtCQRRRO0MmL/PdG/fyy1A0IsVMDSl7Sp4+x6m/LUvmMfLxQfhEUwHihiZQAytyTLTfmo0R47vd/UXA1AS3DTYErQaWyA2g4iEru/DLs+w/tBHOJngCgfIZOvgUo21bkbAGaw6jB0ZtJhOSvP7FrbxEBM992FT/kTTUBve2B7tMfWO1h7qIEx50uUAAVYIla3qTnSwpW3bQDbaJ6EbF47ugnwFp2ke0CcECcZ57ly5DpgIbpBC8AnV/WD/Gya6oApEAFYBl16/z1da/0XckvlZ7hzws2tR+REhDxQSQFTM585j7+XZ6rBaiHxh7QApgB1X1+U7nKUQ4gYMh3fheGFW+Zm7mB3DnyHYCOjxWgrPjVuMyf8E9ezTnJw5DPvBTfCR7Ko743fkbZ6l2ICaDyxUIlAaPzOc9V5qPzAc8d53ag7Uq7uf74cluUlXpu7hOd6PBURkYDoesUPjJa88xABTT4JoK57RBtb38SL4j6HJ8M6/gkQtd+sy6bRBkyPf68AGKk1AvOSEH0ZHin/syNgdN/KaA07lfYG0A6BtQUF2D4ES+wpViRc89zN6VJIyVvMexr9j7V4Jf++EuOlmzQsyfqPU9DRgdU6XMnQPcNue43/VIulw2oSY9fpGtgZU4bYpowFhCPxbdbzJP4OygOIAVQzgCK3VKmcx6GiHg7S1GCc/2LJhrebdcv3MrnsVwvjUrko4Oxw+JnnexLAmx2AwAlIQWgjKDuA8SL4bYv7Zh19csj1X5bArRa6Z/rnIP6Jaefoh5Ay/DO2e1hnhSs+rao1YigufIqMKjAbqSQK1Qql0ZyclsUix7S5UIEYAPakhfAhj4LpDyjMpIgs22Aw6/f9vDrRiQdvpD8Rr5sDKdxw6+mH+UedmrpXvVFg6PqCFCXO/zYhj7X9vLeqn4jZXqXLdqo2RljUX5sqJy0EZGISBO+a03865oXYjxNIMIBqaMW6SmL2wFfKfqi7OnaVnIwFvfH4r7txrXts86QLfpF9XI9sqzux01t0hri685L2YgEjChCci07ZujgnIVywSgkdvPf41AZ7NU+UTRI75uOCb+W7GSjOQ15o0z2V+SyZDnzOWfKlcJWXt94h1f/9TEA1D7xR124pqx0YPjXuW8DpxvJ5WbYihdINjP9ZimtOzJesszvTh0p6ks+X6tepM290hpS5ofMNYlwDiDZTyED35d/3DdbFG2SZS3lHQE8EM8z7bj+pQ4TQPPh4H40QN+pboCp/Cwbyp2Xigr2b1bp2F5uhGyUuvCRP/07LZ0uOzQuCwymDURozigjNytV5DQNKQ2/umKRlUN7LrL4zBTADQyMBiWus6yGI8rfi3sjZSfH5wJbu/1qub7eqwRwbJT2y6jZizJm+6SyjHoZGNKZ9z3zsZ9yRGV+SRT97d97oGwDuYy18Em74zcV9irhu69jrarcTgMTfOY+z50/+7iks/R82g7NCBry5wJHIbwUYNUwU2Ort4SCVCHdhZOt7OCxTxecfCp8VjRlW1EpbGDvxFmDxY4BMHFGLKYQq/q8l1tJqfp+LubqVT0HQ74hdqSMod3lpuMoVysaoCxvrXxGHfi8CgKblXnHEXTYdnl/+IxrpI6n3DH/89wyX2zdK/XCTyXnL9D05XA/FDB7cS/7lTNSeW0zXyy3WcWE2y/uhz/Xra/ftA2mgG5RNsbU2GaVwqXatreLygkaNTAQJVh7H7ktpQNYEeC7E7Nh3QmlMVdK2PI6PruMdT3ruq7utdqnrf3aulbtdyLVrZVnqF38t9Juq8Om58cQUNvSUM6WFdETqOqto4yCcw/SE1H5SwDvNGjRtJroy6ejQcK4RYM6rte4ba6lWv5TrfTXl44Q0Fotu3PkvICgCMf2E9+989XmYcRWkyMm3+GzgMlhL4fIALQfijZpVM9Fh9XLBGja2Gx/qgKNIhtihY2Idnld39tBwFXmS8PIknOrCYjrNKjjosPrOAKaE24WS0Q48uUQGwKWAvM2kT+EvVoBJvPLAYSb1Kzrov21B6CLFh2lFkAXXddaAF10XWsBdNF1rQXQRdexLnb/DyKGUihdXPVTAAAAAElFTkSuQmCC;" vertex="1" parent="1">
          <mxGeometry x="-650" y="-166" width="50" height="18.46" as="geometry" />
        </mxCell>
        <mxCell id="Uc-f4Ewm9fvxlKjvNhb2-73" value="" style="shape=image;verticalLabelPosition=bottom;labelBackgroundColor=default;verticalAlign=top;aspect=fixed;imageAspect=0;image=data:image/png,iVBORw0KGgoAAAANSUhEUgAAAKgAAAA+CAYAAAC/dFDqAAAAAXNSR0IArs4c6QAAAARnQU1BAACxjwv8YQUAAAAJcEhZcwAADsMAAA7DAcdvqGQAABVDSURBVHhe7Zzty2XXWcb9+Aj6JwgKggiKRVDwhfghptJqk+nLxNS2oTVppmmCaZ3pEBuLdJK2DukkM5lYpqGxjQ2laNQ2UCyUQrRVUUGKGBA0mFoURLDFD5piZXv9rnXf+6y99zrn7HOemSfztHvDxd5n77Xue7389r1eznme7zq462K36JjoVOPeWj1mffcdj+yktq1dVPzu63+oC90C6LetXg5Ah3Du43+oBdDjJUfQC9P7a0XaBOXCqPPbOrjj0Sr/rloA/Q6XgDu1A6Bve1DpL+l6PqCppr091LI9Xwugx0y7AXrvxz7THdz+UB952xCsV8vmrmrZna8F0GOmHSNoynn2AZRhumFvB7XsztcC6DHTIQCV2hCs1wLoot3FcL0rpCfOKs/D7vASSWu1wCjKhU7T5hyFz5bteVoAPWYKWNTx02czlJH0zvNF1xpQaQH0O02OoOfbz7Zpb0B3jNgjtWzP0wLo8ZLhVPQUoADWTDNHAequC6emrR3VsrteC6DHSxk9rUNEtT0APXgr50P4bKjlZ6gF0OMnQxpqPd9Ftz/UgKItvmHyuWXnEBr7GWoB9Bgq54UhVujNdPPUBmO9WjYOo5aPlRZAj6GGgB79sHuUkC6AHkMNAS1qpdtPbVBaOooXYwH0GKoF6OPlO/dm+t3UBqWlsl3VsrGXYo479rEA+m2jqxPRppCsU+ynXsVI2vKxALpooikoU/l3o94FEKBsQRFNX3N3095cTf0sgC5qaArKVGVqcXWH+amfBdBFDU1Bmco/hPZvAq6LIX48KU+N09Sfd9HYbsi/Bm+lv97UKPtOatmsNSfN1dMUlKlW32pN8++rqZ8WoP4KjAbRylDyHOPkmanedL+eR1oV9Hvv+YCuR7aayk7BPmfZ4E8TsFfbv+2B7uB1OvtrOfLhC43tHYVUTuZcmmv57PJkPbiOoY6V9BzRsXedK3I7qi1cT75nR1FX3wMCxH35ogxzNclff+aaKCibtL/bNv+GiK9A+SxoPITzeQpP3h+21f5q+WhE0FIwF1yA3PzeS91Tn//z7q/+6avd8//xX9YXdH37hSf93BVw5alIbWeTElBdC8ZXvONs9+FPP9v99b983fY5P/t3X+3e98nPlQ4EVnfY2M5RiTZRed/+uzpT9nPdD956orvxjtd3bzj9+u7tp092d55+dffu95yYJdLn+Vfvf4fqCLRRv4QGvwb6TPdDb31Ld8OpW3pfc3Ty3l92HvJiwxD65cI+wt/DbnvS3/fe1/Z5b373u1Z/z6Q09PEUnpWm7bWfprabETTeGoHzxJ/8afc/Xdd9q3tpom/q/pN/8ZUS7Zw3gJuj7ADBRwMBJX6Kr3Jw5vML3/yWX5LyJmfEOmoFoAKGDn/kw2/q/ubKT1ovXPlh62tXvn+2/vGJH+jPz33qpu6Vp253Z5Q2ROe6H3/zqe43Tv9i9+yVk/ZDWpT+5ugrH3+F7X/iUgHPfUVkxUdEU0AmXW37Dz+h1fhtp/Q8QI5IuU7tNttdU9vrhni9Pb909pG1cHb/Jzz/t0DkP8wiAswF1FGi+Dg4ea8jc8IJ9D5ku5eOz/7Di/7O+Wo2xm7Si6EoRAT77KWf6P7t0kH3749Oxf05qvM8/9GfqQAt0ZnIB5hAXKcf512n3tfllfDzkcvvNPhl+C8v/cm7fsFwfuNDq/x/9OjPB6AFzvYm+krtNttPQ9tNQBWpFNkYXg1MwJiwDK51EP38ZroyI1stGVBNCeSDacLqJdCRtmvpIIoWHyNbRyQ6kuE84aQzEwA6lwiUEXWbMu2ffeQGn4lwN91zuvhSuxChn7p80wSwrz3+fY5uta1NIi1lqyHn3uWLv1baEugCUNJQJ3xwjf8CKKMW/cpapAZnqHF7HUZD2+vmoIqIAGpoBGie//7Ff+6+rss6kvLM81HmS+TPCGlbrSFZ93iu6PnCv/6nIVzZesk+sNlHU93vAWUOZZtpFz+psD14vkUZIbLMfYfwHBsx5Opl+q1fF5zAEp2NgIyhE3gRcM0RUawW9h1BNddmWAcUvwTyhx98ElHxRbQda2yPe4D3ofOv8gtRgw68DOtlmL9YAJU//CTM+PK81W2kYKK2GIKzTqvF1b4a22sAqo4JQBOQBPTzz33RSkATJBZN5WdfyuvODlsGKu2mlEbDO/NK29VBFMU+57OPXbTNJqDkT/u1WvcHPtcp4YyFg+9VYFaAPvHgDT0s2ZnMRf3tSa7M1ZmeK9OpIT5PFB256lCddZ+XNv30wARUQFemUpHWL1TkHdgrHZuLK+wRSRNQoui7Hr6npJOdBJR6JagrQOlPAG3NDzdr2M7zNbSzI6CAyHBUomgRB58BjrmNG6cHhM6ubSM9V6f+wd8+XzLrKMN85/ko9rluAppRbgAD91BCEfcmfluiA1RuOp552Vt0j7NBqMq+BlBWvrxs7hBH3wpqbCFe0jliy0nDKvO/9IMPZGBUBtsNKK287tsA0QaUu2wR3vrGnyuAZrkFoV8sv1QXrhmgaNXO8zW0MRNQS4cj5Q23ehuIw4B6iO68FXVw8/tKY/dRbAyohgpBxcrdFgz/SwYUveejv+9n2LNtjgGg2BUI6iwWcbX8gvTw1j43iej4UHfy/Ke6ux97prvnkWd8ZuGHzf4FEDwTQNWZBjTAdlquRxo2eIi03kIq8ucAlHmu/RDx5AuxCi/AKE22bS2381Q1oFl2BKD45Pm1BBRN23yzhvn3AfTGO9yJHAkozwHO+4R0TD9cNmxrnsX2FEdOFbDuxZYiaz/0h0+er4b4AjjpuJcHKfE/mAvPkgDV1IR65YFVbH3wc18uUcsAbACUKKl6lw6nQ1THOjJmJE01oY3oVwFqaAJSA6p2KyDzwtSSTepRiz7ws3MGsAc0hnkDik+V7xgCKgnQD378M+6wBIXDgBIl1XEGJOGNNEDtDqAhXTEqSKNm4+nz684YgIQTIIieziu/RC4fssmzIaBqVDpSNpgO9IfSYgNAqdT8hinl6W1FXeryOJ3mho+//0QP5xCcU8VnAhpgZiMnSL4GHFSB6s/5BYD89IAyvAsY1ANK+nH09AukvAPFPT171dtebUATTsqdgGLvWgOK3CZ9m2/WMO8Y0KzwNkDVqXzz4yOeA5OjYPwXiwJTDLvAybWeYTfBS0ANoBvkYnfrmd/BnO1OAPUcS9J1QkUa0lKKBHRQp41SB2wB1PY0z2SoZC+RDkSssllw5CY4HZ2r+VrsabLAYcHirRtB6CjvTlO7ALMjo65VrxpQgOoB9Rw04Zsj0j5mQClnD6i0AvTaD/EtlbqX8qVa6fYHlE12VeDFb/x3PCkHHcvw78hjWwClCgpOd4KG5j5P7HGSh2+sSoS4MIigaCOgMf8l3RBQKh112iilmwMo6QQXW01s2ySkBkmdSoTiPgCPBRyIlTjbUiyCANrbS56OaDEzG9BWHdapdPwE0EEEfXkAna89AXWDqmNZGPWHYCElC6iDV94nO7looYOxeb8XQb01AJUY7lkYlQYrCx6gc7omoGqwCqoWoNgZ1Gut2oBiawCo2oQ6AxXfubORDZCGSB1Lp9L5Ce02AQwQeD/S4DH9WQCd6jCAKs2PvflMASQOYCL6MEx7bpWrToZ7DW3kTwASaH+NybBHJFGhElDskHYboAY9bOYiCTuDeq3VTECpBwB5rlh+KAKozEuJiEBFdGyJZ8BsSARBfqUIDDw3pBFJjwRQ6fgCmqoABZA8DKi/E1enMY+I/cyMYoZFB/cKULGa1/D9xgev9IujBIHP3h5iykBjCOoENG1OAZUEVU4VeE7aBLQMl3TOqE5NzQQ0RwK/wPEZaOnEWswxRyLqMhcF6NzjRAnLF54WDKSlrXTuAQWaSLMCVL6z3C5LlMMQcY/nEn0TZR4skgQhZwAtC7ctgMb8mHRtgLYrF4PuF/aMw55fSoIJ9ykvvkZ5SdcGVBlnAapGA7CMdj5Gw7YbT3AlyAWoYtP2BHlpWPmtAPUxAVS2SHvkgOK3JSDQuWr4oUpDO43aChjGWz4rQFWeOYBGh5c6MjUIWH2OurNLEGW7HgC1KJPLO9V6+4cAFLkRBNiggwUowHofUZGThu035mM4RqTxkOwFF0Oc/G4FFJ9HC6ihALCJlN8jBL7CX0SCWqU86gh10GDTPOBbB2g+Rz2gBlG21O60qfNJXnDFtcsSUxHKeShAZevQgFJev1Rqxxhl+h2NauR0W03y7wsojZ6wyAmLH4Bz2jFUEqv0HjoOpfGWFAVWI7rw+D2OgNai0+2f+hSVuhVAcz64P6DYOucO5vt08tbzXT7zk8DSrvTR4QF1XdVWU3jmKOqusmSZH37i7l7+sbZfqoR4mn+/OagBRUpLoymKAlwNKBHTW056BmCrZ9jsvI+ajf7yAEqaXQGtrisIVwqblWjokr58q3MoQOWj2DvvhRrfbuUCyHkEGT/fYxur9FEBtF8k7QwocFEvlW00MmyTy8k17aB6USb88mstvoE7deeP+HP/FwXRVkM1AZVBZaCD+k6Lw4DGKj7lPLr3/qefK4kCKgCl4wG9t6AhHpgMnAulBnBHRiNsA5R0vBhAz0/14jnRG3/+8bSAc8MwbNSKRqtl/3rhekCZgkgJqF8cdVD5eytW8vocHVDKMpLrUVTahms6ufzOk31UolkO8zUM9qWOZCEFRMCS21hERxZangrZFxFb9pWezu6nDUCmPOy5AsTBa26xzwQP8dy/CfWcsCyiSJ/58c1nvmDoh2D1zarN4sXL/lfd+mu3C30q27pPuyFeJn4s/bO3/Kh/rU9d2AHBd/8j6rRb9c9GQIlwBmUboDQaACiPo1oFDTm5V9vh2hvzPaD4pCN1lp1NgBZg5FPRpN+Dxa6EdaI40w22v0iT57WiA06WX/X7WAMo6Zjz5bdDfDOU19tEJxCl+G0mHW8IJIAgshFF/AKoQykTf6vUbzEFoJz/8sk3+Bmg06GIa+a1n3xn+UrUaeMMtIDt4b3ySRlee18ZVqkfNtjXxUdCTFpeFKIdZacOALurPE9W2+Hvwcu/2X3PLT/dPfX0r7gtqDe+eVn8g23DvSOgPgIsjhagFh2pSAR4PgKsPm985hORztEIqB0JcshcAUq6hHoKaBkuUQ7z9hO+yIePXZRltc8WoIpwNCj7mbsKCDkDSkYy/3pdQDC8A3F5QanT4wYPOHhuQGNo5hpbfDsFZMDHGXGvhtCQRRRO0MmL/PdG/fyy1A0IsVMDSl7Sp4+x6m/LUvmMfLxQfhEUwHihiZQAytyTLTfmo0R47vd/UXA1AS3DTYErQaWyA2g4iEru/DLs+w/tBHOJngCgfIZOvgUo21bkbAGaw6jB0ZtJhOSvP7FrbxEBM992FT/kTTUBve2B7tMfWO1h7qIEx50uUAAVYIla3qTnSwpW3bQDbaJ6EbF47ugnwFp2ke0CcECcZ57ly5DpgIbpBC8AnV/WD/Gya6oApEAFYBl16/z1da/0XckvlZ7hzws2tR+REhDxQSQFTM585j7+XZ6rBaiHxh7QApgB1X1+U7nKUQ4gYMh3fheGFW+Zm7mB3DnyHYCOjxWgrPjVuMyf8E9ezTnJw5DPvBTfCR7Ko743fkbZ6l2ICaDyxUIlAaPzOc9V5qPzAc8d53ag7Uq7uf74cluUlXpu7hOd6PBURkYDoesUPjJa88xABTT4JoK57RBtb38SL4j6HJ8M6/gkQtd+sy6bRBkyPf68AGKk1AvOSEH0ZHin/syNgdN/KaA07lfYG0A6BtQUF2D4ES+wpViRc89zN6VJIyVvMexr9j7V4Jf++EuOlmzQsyfqPU9DRgdU6XMnQPcNue43/VIulw2oSY9fpGtgZU4bYpowFhCPxbdbzJP4OygOIAVQzgCK3VKmcx6GiHg7S1GCc/2LJhrebdcv3MrnsVwvjUrko4Oxw+JnnexLAmx2AwAlIQWgjKDuA8SL4bYv7Zh19csj1X5bArRa6Z/rnIP6Jaefoh5Ay/DO2e1hnhSs+rao1YigufIqMKjAbqSQK1Qql0ZyclsUix7S5UIEYAPakhfAhj4LpDyjMpIgs22Aw6/f9vDrRiQdvpD8Rr5sDKdxw6+mH+UedmrpXvVFg6PqCFCXO/zYhj7X9vLeqn4jZXqXLdqo2RljUX5sqJy0EZGISBO+a03865oXYjxNIMIBqaMW6SmL2wFfKfqi7OnaVnIwFvfH4r7txrXts86QLfpF9XI9sqzux01t0hri685L2YgEjChCci07ZujgnIVywSgkdvPf41AZ7NU+UTRI75uOCb+W7GSjOQ15o0z2V+SyZDnzOWfKlcJWXt94h1f/9TEA1D7xR124pqx0YPjXuW8DpxvJ5WbYihdINjP9ZimtOzJesszvTh0p6ks+X6tepM290hpS5ofMNYlwDiDZTyED35d/3DdbFG2SZS3lHQE8EM8z7bj+pQ4TQPPh4H40QN+pboCp/Cwbyp2Xigr2b1bp2F5uhGyUuvCRP/07LZ0uOzQuCwymDURozigjNytV5DQNKQ2/umKRlUN7LrL4zBTADQyMBiWus6yGI8rfi3sjZSfH5wJbu/1qub7eqwRwbJT2y6jZizJm+6SyjHoZGNKZ9z3zsZ9yRGV+SRT97d97oGwDuYy18Em74zcV9irhu69jrarcTgMTfOY+z50/+7iks/R82g7NCBry5wJHIbwUYNUwU2Ort4SCVCHdhZOt7OCxTxecfCp8VjRlW1EpbGDvxFmDxY4BMHFGLKYQq/q8l1tJqfp+LubqVT0HQ74hdqSMod3lpuMoVysaoCxvrXxGHfi8CgKblXnHEXTYdnl/+IxrpI6n3DH/89wyX2zdK/XCTyXnL9D05XA/FDB7cS/7lTNSeW0zXyy3WcWE2y/uhz/Xra/ftA2mgG5RNsbU2GaVwqXatreLygkaNTAQJVh7H7ktpQNYEeC7E7Nh3QmlMVdK2PI6PruMdT3ruq7utdqnrf3aulbtdyLVrZVnqF38t9Juq8Om58cQUNvSUM6WFdETqOqto4yCcw/SE1H5SwDvNGjRtJroy6ejQcK4RYM6rte4ba6lWv5TrfTXl44Q0Fotu3PkvICgCMf2E9+989XmYcRWkyMm3+GzgMlhL4fIALQfijZpVM9Fh9XLBGja2Gx/qgKNIhtihY2Idnld39tBwFXmS8PIknOrCYjrNKjjosPrOAKaE24WS0Q48uUQGwKWAvM2kT+EvVoBJvPLAYSb1Kzrov21B6CLFh2lFkAXXddaAF10XWsBdNF1rQXQRdexLnb/DyKGUihdXPVTAAAAAElFTkSuQmCC;" vertex="1" parent="1">
          <mxGeometry x="-525" y="-300" width="50" height="18.46" as="geometry" />
        </mxCell>
        <mxCell id="Uc-f4Ewm9fvxlKjvNhb2-74" value="" style="shape=image;verticalLabelPosition=bottom;labelBackgroundColor=default;verticalAlign=top;aspect=fixed;imageAspect=0;image=data:image/png,iVBORw0KGgoAAAANSUhEUgAAAKgAAAA+CAYAAAC/dFDqAAAAAXNSR0IArs4c6QAAAARnQU1BAACxjwv8YQUAAAAJcEhZcwAADsMAAA7DAcdvqGQAABVDSURBVHhe7Zzty2XXWcb9+Aj6JwgKggiKRVDwhfghptJqk+nLxNS2oTVppmmCaZ3pEBuLdJK2DukkM5lYpqGxjQ2laNQ2UCyUQrRVUUGKGBA0mFoURLDFD5piZXv9rnXf+6y99zrn7HOemSfztHvDxd5n77Xue7389r1eznme7zq462K36JjoVOPeWj1mffcdj+yktq1dVPzu63+oC90C6LetXg5Ah3Du43+oBdDjJUfQC9P7a0XaBOXCqPPbOrjj0Sr/rloA/Q6XgDu1A6Bve1DpL+l6PqCppr091LI9Xwugx0y7AXrvxz7THdz+UB952xCsV8vmrmrZna8F0GOmHSNoynn2AZRhumFvB7XsztcC6DHTIQCV2hCs1wLoot3FcL0rpCfOKs/D7vASSWu1wCjKhU7T5hyFz5bteVoAPWYKWNTx02czlJH0zvNF1xpQaQH0O02OoOfbz7Zpb0B3jNgjtWzP0wLo8ZLhVPQUoADWTDNHAequC6emrR3VsrteC6DHSxk9rUNEtT0APXgr50P4bKjlZ6gF0OMnQxpqPd9Ftz/UgKItvmHyuWXnEBr7GWoB9Bgq54UhVujNdPPUBmO9WjYOo5aPlRZAj6GGgB79sHuUkC6AHkMNAS1qpdtPbVBaOooXYwH0GKoF6OPlO/dm+t3UBqWlsl3VsrGXYo479rEA+m2jqxPRppCsU+ynXsVI2vKxALpooikoU/l3o94FEKBsQRFNX3N3095cTf0sgC5qaArKVGVqcXWH+amfBdBFDU1Bmco/hPZvAq6LIX48KU+N09Sfd9HYbsi/Bm+lv97UKPtOatmsNSfN1dMUlKlW32pN8++rqZ8WoP4KjAbRylDyHOPkmanedL+eR1oV9Hvv+YCuR7aayk7BPmfZ4E8TsFfbv+2B7uB1OvtrOfLhC43tHYVUTuZcmmv57PJkPbiOoY6V9BzRsXedK3I7qi1cT75nR1FX3wMCxH35ogxzNclff+aaKCibtL/bNv+GiK9A+SxoPITzeQpP3h+21f5q+WhE0FIwF1yA3PzeS91Tn//z7q/+6avd8//xX9YXdH37hSf93BVw5alIbWeTElBdC8ZXvONs9+FPP9v99b983fY5P/t3X+3e98nPlQ4EVnfY2M5RiTZRed/+uzpT9nPdD956orvxjtd3bzj9+u7tp092d55+dffu95yYJdLn+Vfvf4fqCLRRv4QGvwb6TPdDb31Ld8OpW3pfc3Ty3l92HvJiwxD65cI+wt/DbnvS3/fe1/Z5b373u1Z/z6Q09PEUnpWm7bWfprabETTeGoHzxJ/8afc/Xdd9q3tpom/q/pN/8ZUS7Zw3gJuj7ADBRwMBJX6Kr3Jw5vML3/yWX5LyJmfEOmoFoAKGDn/kw2/q/ubKT1ovXPlh62tXvn+2/vGJH+jPz33qpu6Vp253Z5Q2ROe6H3/zqe43Tv9i9+yVk/ZDWpT+5ugrH3+F7X/iUgHPfUVkxUdEU0AmXW37Dz+h1fhtp/Q8QI5IuU7tNttdU9vrhni9Pb909pG1cHb/Jzz/t0DkP8wiAswF1FGi+Dg4ea8jc8IJ9D5ku5eOz/7Di/7O+Wo2xm7Si6EoRAT77KWf6P7t0kH3749Oxf05qvM8/9GfqQAt0ZnIB5hAXKcf512n3tfllfDzkcvvNPhl+C8v/cm7fsFwfuNDq/x/9OjPB6AFzvYm+krtNttPQ9tNQBWpFNkYXg1MwJiwDK51EP38ZroyI1stGVBNCeSDacLqJdCRtmvpIIoWHyNbRyQ6kuE84aQzEwA6lwiUEXWbMu2ffeQGn4lwN91zuvhSuxChn7p80wSwrz3+fY5uta1NIi1lqyHn3uWLv1baEugCUNJQJ3xwjf8CKKMW/cpapAZnqHF7HUZD2+vmoIqIAGpoBGie//7Ff+6+rss6kvLM81HmS+TPCGlbrSFZ93iu6PnCv/6nIVzZesk+sNlHU93vAWUOZZtpFz+psD14vkUZIbLMfYfwHBsx5Opl+q1fF5zAEp2NgIyhE3gRcM0RUawW9h1BNddmWAcUvwTyhx98ElHxRbQda2yPe4D3ofOv8gtRgw68DOtlmL9YAJU//CTM+PK81W2kYKK2GIKzTqvF1b4a22sAqo4JQBOQBPTzz33RSkATJBZN5WdfyuvODlsGKu2mlEbDO/NK29VBFMU+57OPXbTNJqDkT/u1WvcHPtcp4YyFg+9VYFaAPvHgDT0s2ZnMRf3tSa7M1ZmeK9OpIT5PFB256lCddZ+XNv30wARUQFemUpHWL1TkHdgrHZuLK+wRSRNQoui7Hr6npJOdBJR6JagrQOlPAG3NDzdr2M7zNbSzI6CAyHBUomgRB58BjrmNG6cHhM6ubSM9V6f+wd8+XzLrKMN85/ko9rluAppRbgAD91BCEfcmfluiA1RuOp552Vt0j7NBqMq+BlBWvrxs7hBH3wpqbCFe0jliy0nDKvO/9IMPZGBUBtsNKK287tsA0QaUu2wR3vrGnyuAZrkFoV8sv1QXrhmgaNXO8zW0MRNQS4cj5Q23ehuIw4B6iO68FXVw8/tKY/dRbAyohgpBxcrdFgz/SwYUveejv+9n2LNtjgGg2BUI6iwWcbX8gvTw1j43iej4UHfy/Ke6ux97prvnkWd8ZuGHzf4FEDwTQNWZBjTAdlquRxo2eIi03kIq8ucAlHmu/RDx5AuxCi/AKE22bS2381Q1oFl2BKD45Pm1BBRN23yzhvn3AfTGO9yJHAkozwHO+4R0TD9cNmxrnsX2FEdOFbDuxZYiaz/0h0+er4b4AjjpuJcHKfE/mAvPkgDV1IR65YFVbH3wc18uUcsAbACUKKl6lw6nQ1THOjJmJE01oY3oVwFqaAJSA6p2KyDzwtSSTepRiz7ws3MGsAc0hnkDik+V7xgCKgnQD378M+6wBIXDgBIl1XEGJOGNNEDtDqAhXTEqSKNm4+nz684YgIQTIIieziu/RC4fssmzIaBqVDpSNpgO9IfSYgNAqdT8hinl6W1FXeryOJ3mho+//0QP5xCcU8VnAhpgZiMnSL4GHFSB6s/5BYD89IAyvAsY1ANK+nH09AukvAPFPT171dtebUATTsqdgGLvWgOK3CZ9m2/WMO8Y0KzwNkDVqXzz4yOeA5OjYPwXiwJTDLvAybWeYTfBS0ANoBvkYnfrmd/BnO1OAPUcS9J1QkUa0lKKBHRQp41SB2wB1PY0z2SoZC+RDkSssllw5CY4HZ2r+VrsabLAYcHirRtB6CjvTlO7ALMjo65VrxpQgOoB9Rw04Zsj0j5mQClnD6i0AvTaD/EtlbqX8qVa6fYHlE12VeDFb/x3PCkHHcvw78hjWwClCgpOd4KG5j5P7HGSh2+sSoS4MIigaCOgMf8l3RBQKh112iilmwMo6QQXW01s2ySkBkmdSoTiPgCPBRyIlTjbUiyCANrbS56OaDEzG9BWHdapdPwE0EEEfXkAna89AXWDqmNZGPWHYCElC6iDV94nO7looYOxeb8XQb01AJUY7lkYlQYrCx6gc7omoGqwCqoWoNgZ1Gut2oBiawCo2oQ6AxXfubORDZCGSB1Lp9L5Ce02AQwQeD/S4DH9WQCd6jCAKs2PvflMASQOYCL6MEx7bpWrToZ7DW3kTwASaH+NybBHJFGhElDskHYboAY9bOYiCTuDeq3VTECpBwB5rlh+KAKozEuJiEBFdGyJZ8BsSARBfqUIDDw3pBFJjwRQ6fgCmqoABZA8DKi/E1enMY+I/cyMYoZFB/cKULGa1/D9xgev9IujBIHP3h5iykBjCOoENG1OAZUEVU4VeE7aBLQMl3TOqE5NzQQ0RwK/wPEZaOnEWswxRyLqMhcF6NzjRAnLF54WDKSlrXTuAQWaSLMCVL6z3C5LlMMQcY/nEn0TZR4skgQhZwAtC7ctgMb8mHRtgLYrF4PuF/aMw55fSoIJ9ykvvkZ5SdcGVBlnAapGA7CMdj5Gw7YbT3AlyAWoYtP2BHlpWPmtAPUxAVS2SHvkgOK3JSDQuWr4oUpDO43aChjGWz4rQFWeOYBGh5c6MjUIWH2OurNLEGW7HgC1KJPLO9V6+4cAFLkRBNiggwUowHofUZGThu035mM4RqTxkOwFF0Oc/G4FFJ9HC6ihALCJlN8jBL7CX0SCWqU86gh10GDTPOBbB2g+Rz2gBlG21O60qfNJXnDFtcsSUxHKeShAZevQgFJev1Rqxxhl+h2NauR0W03y7wsojZ6wyAmLH4Bz2jFUEqv0HjoOpfGWFAVWI7rw+D2OgNai0+2f+hSVuhVAcz64P6DYOucO5vt08tbzXT7zk8DSrvTR4QF1XdVWU3jmKOqusmSZH37i7l7+sbZfqoR4mn+/OagBRUpLoymKAlwNKBHTW056BmCrZ9jsvI+ajf7yAEqaXQGtrisIVwqblWjokr58q3MoQOWj2DvvhRrfbuUCyHkEGT/fYxur9FEBtF8k7QwocFEvlW00MmyTy8k17aB6USb88mstvoE7deeP+HP/FwXRVkM1AZVBZaCD+k6Lw4DGKj7lPLr3/qefK4kCKgCl4wG9t6AhHpgMnAulBnBHRiNsA5R0vBhAz0/14jnRG3/+8bSAc8MwbNSKRqtl/3rhekCZgkgJqF8cdVD5eytW8vocHVDKMpLrUVTahms6ufzOk31UolkO8zUM9qWOZCEFRMCS21hERxZangrZFxFb9pWezu6nDUCmPOy5AsTBa26xzwQP8dy/CfWcsCyiSJ/58c1nvmDoh2D1zarN4sXL/lfd+mu3C30q27pPuyFeJn4s/bO3/Kh/rU9d2AHBd/8j6rRb9c9GQIlwBmUboDQaACiPo1oFDTm5V9vh2hvzPaD4pCN1lp1NgBZg5FPRpN+Dxa6EdaI40w22v0iT57WiA06WX/X7WAMo6Zjz5bdDfDOU19tEJxCl+G0mHW8IJIAgshFF/AKoQykTf6vUbzEFoJz/8sk3+Bmg06GIa+a1n3xn+UrUaeMMtIDt4b3ySRlee18ZVqkfNtjXxUdCTFpeFKIdZacOALurPE9W2+Hvwcu/2X3PLT/dPfX0r7gtqDe+eVn8g23DvSOgPgIsjhagFh2pSAR4PgKsPm985hORztEIqB0JcshcAUq6hHoKaBkuUQ7z9hO+yIePXZRltc8WoIpwNCj7mbsKCDkDSkYy/3pdQDC8A3F5QanT4wYPOHhuQGNo5hpbfDsFZMDHGXGvhtCQRRRO0MmL/PdG/fyy1A0IsVMDSl7Sp4+x6m/LUvmMfLxQfhEUwHihiZQAytyTLTfmo0R47vd/UXA1AS3DTYErQaWyA2g4iEru/DLs+w/tBHOJngCgfIZOvgUo21bkbAGaw6jB0ZtJhOSvP7FrbxEBM992FT/kTTUBve2B7tMfWO1h7qIEx50uUAAVYIla3qTnSwpW3bQDbaJ6EbF47ugnwFp2ke0CcECcZ57ly5DpgIbpBC8AnV/WD/Gya6oApEAFYBl16/z1da/0XckvlZ7hzws2tR+REhDxQSQFTM585j7+XZ6rBaiHxh7QApgB1X1+U7nKUQ4gYMh3fheGFW+Zm7mB3DnyHYCOjxWgrPjVuMyf8E9ezTnJw5DPvBTfCR7Ko743fkbZ6l2ICaDyxUIlAaPzOc9V5qPzAc8d53ag7Uq7uf74cluUlXpu7hOd6PBURkYDoesUPjJa88xABTT4JoK57RBtb38SL4j6HJ8M6/gkQtd+sy6bRBkyPf68AGKk1AvOSEH0ZHin/syNgdN/KaA07lfYG0A6BtQUF2D4ES+wpViRc89zN6VJIyVvMexr9j7V4Jf++EuOlmzQsyfqPU9DRgdU6XMnQPcNue43/VIulw2oSY9fpGtgZU4bYpowFhCPxbdbzJP4OygOIAVQzgCK3VKmcx6GiHg7S1GCc/2LJhrebdcv3MrnsVwvjUrko4Oxw+JnnexLAmx2AwAlIQWgjKDuA8SL4bYv7Zh19csj1X5bArRa6Z/rnIP6Jaefoh5Ay/DO2e1hnhSs+rao1YigufIqMKjAbqSQK1Qql0ZyclsUix7S5UIEYAPakhfAhj4LpDyjMpIgs22Aw6/f9vDrRiQdvpD8Rr5sDKdxw6+mH+UedmrpXvVFg6PqCFCXO/zYhj7X9vLeqn4jZXqXLdqo2RljUX5sqJy0EZGISBO+a03865oXYjxNIMIBqaMW6SmL2wFfKfqi7OnaVnIwFvfH4r7txrXts86QLfpF9XI9sqzux01t0hri685L2YgEjChCci07ZujgnIVywSgkdvPf41AZ7NU+UTRI75uOCb+W7GSjOQ15o0z2V+SyZDnzOWfKlcJWXt94h1f/9TEA1D7xR124pqx0YPjXuW8DpxvJ5WbYihdINjP9ZimtOzJesszvTh0p6ks+X6tepM290hpS5ofMNYlwDiDZTyED35d/3DdbFG2SZS3lHQE8EM8z7bj+pQ4TQPPh4H40QN+pboCp/Cwbyp2Xigr2b1bp2F5uhGyUuvCRP/07LZ0uOzQuCwymDURozigjNytV5DQNKQ2/umKRlUN7LrL4zBTADQyMBiWus6yGI8rfi3sjZSfH5wJbu/1qub7eqwRwbJT2y6jZizJm+6SyjHoZGNKZ9z3zsZ9yRGV+SRT97d97oGwDuYy18Em74zcV9irhu69jrarcTgMTfOY+z50/+7iks/R82g7NCBry5wJHIbwUYNUwU2Ort4SCVCHdhZOt7OCxTxecfCp8VjRlW1EpbGDvxFmDxY4BMHFGLKYQq/q8l1tJqfp+LubqVT0HQ74hdqSMod3lpuMoVysaoCxvrXxGHfi8CgKblXnHEXTYdnl/+IxrpI6n3DH/89wyX2zdK/XCTyXnL9D05XA/FDB7cS/7lTNSeW0zXyy3WcWE2y/uhz/Xra/ftA2mgG5RNsbU2GaVwqXatreLygkaNTAQJVh7H7ktpQNYEeC7E7Nh3QmlMVdK2PI6PruMdT3ruq7utdqnrf3aulbtdyLVrZVnqF38t9Juq8Om58cQUNvSUM6WFdETqOqto4yCcw/SE1H5SwDvNGjRtJroy6ejQcK4RYM6rte4ba6lWv5TrfTXl44Q0Fotu3PkvICgCMf2E9+989XmYcRWkyMm3+GzgMlhL4fIALQfijZpVM9Fh9XLBGja2Gx/qgKNIhtihY2Idnld39tBwFXmS8PIknOrCYjrNKjjosPrOAKaE24WS0Q48uUQGwKWAvM2kT+EvVoBJvPLAYSb1Kzrov21B6CLFh2lFkAXXddaAF10XWsBdNF1rQXQRdexLnb/DyKGUihdXPVTAAAAAElFTkSuQmCC;" vertex="1" parent="1">
          <mxGeometry x="-745" y="-423" width="50" height="18.46" as="geometry" />
        </mxCell>
        <mxCell id="Uc-f4Ewm9fvxlKjvNhb2-76" value="" style="shape=image;verticalLabelPosition=bottom;labelBackgroundColor=default;verticalAlign=top;aspect=fixed;imageAspect=0;image=data:image/png,iVBORw0KGgoAAAANSUhEUgAAAEkAAABFCAYAAAAGscunAAAAAXNSR0IArs4c6QAAAARnQU1BAACxjwv8YQUAAAAJcEhZcwAADsMAAA7DAcdvqGQAAAcESURBVHhe7ZoJbFRFGMf/ex8t2y0tPaCFcsjNAhKhHBoEDIfBCBgMGJqgkGAIJkLUmBglaogmJiYYFYlXxBBFA1GCwaBgBISCxXJYoVyFll4UFtptu93T+d4O7G7ZfTtbusBu32+z2Tczb3Zn/vPN933zWtWHh5/yQ0EWNf9UkEERSQBFJAEUkQRQRBJAEUkARSQBFJEEUEQSQBFJAEUkARSRBFBEEkARSQBFJAEUkQRQRBJAEUkARSQBFJEEUEQSQBFJgKQVKdtcBKsxn5cSS9KKNDZ3HkpsH2NywVJWUgUqE0TSikSyqFUaTOr3LJbZNqLQYgs0JICU8ElZpv4osj7MS92P4rgFUEQSQBFJAEUkAeIWSaPSIsOYB5M2g5XiD71put5I12exnvGvj05tCPRVxd9Xq9Yjw5AnfcaLZs6KYev5dUysxr6YO2QdphUuw4js6ewHdahznOat8tAEpxaWYMbAVbDlzpUmW9NyCj6/l98hD4X4OYPX4pG+i2Ax9IGFLVRoMknjuHyznJfCyUsbijlD1mJy4VL0Z99z3VkNh+sab42N0D9x0YTG5MzGhPynmTAGXhug3lGJ0ivfSwP0+j28NgjlMkN6T5byGQrVoThcTThQvQUX7KVwedt5bTi9TQUYlzsfo3JmSVYcjbK6Hdh/+WteCkAi2nLmsEWZF2ZBNM7jDbtwsmE37M5aXhudmCKN6jMTjxetkjVTv9/HrOJf7Kx8l03WyWtpkP2wYPibsOhzom4RP3vdYAPdfno9WjoaeW1A3An5C5i4i+9YmEiEikS/RRn51IJl0GmMUl0kaGEO12zFsfqdrBRdBtnNXVywBE8MWiMrEEGDKrSMwfPjPodRZYXH7YNVX4iloz+Q/ICcD1GxVyYTc/nYTcg3j5T60vuZERvY9lwmJBDh8/lv951VtBrTB6yUFYjQa0x4bMALmF60ktdERlYkq4H2fLhzJku5dO0EmtsbmT/x8doA9KOeNjXabrqgc1tY2cxbYkOWo3abpb70zkkbzFuCtLma0dhSBa/PzWuCuDu8t/tatHcefKnvhaZj6PC08pog6Zo+bDfwQgRkRaKtEMr11lp8c+gVbCl9DZ/+uQoHz2/jLYmFtvPfl3bii4MvYfOB1dhW9jZanOKO93jNb1Lfb0tfx5d/vYwqtsih2B0NaG9hwkcRSlakztjb6lB7s1KyIFqRM/UHeUticXs7cKTqJ+n3fT4PzjYewfmmMt4am/Jq5qBZX+JqyyWcvLJXura31eLXik3Y899n8Li8cDFrjEQMkWR9ekTkzPZBodVlx4Hz30m7ofTiDnj49nU63PB6wl0IEZcl3S+0Gj0mDVyITHPA1wzPm4KirLHStQjTh5ZgUDY9JQj418qGw9h7+it4mIV2xulgaUynhe52S7pFlywqrE+wIKUD/edhxbSPUDLpfSye8BasplzeGpsBWTY8N3EDFo5/Fb2M2bw2MmRJ7cyiQpF33CGDpsz4TMMhXgpA+5yiTSSuOi7B0XGdl2Lj8blu+w3CzoJEZ0y6XijKHsdL4dxsv8qvWPbdfJZfBVGpVBjddwZWTN2IGcOWy6YHFCldzqB/kj2WDM4sRqapH6qayrG9/L07RKKJUeSgkGw150GvNeNo1c9wuh1wedqYg9wHA6ujNp0mcr7Twe47VbsPW4+8ESZSRd1+9n1GZDCLoc9o1Defk5zv8Zo9rBRY1QtN/+A6c8q0PdMNmVLdLWg8/XuPxrDcYpxrPApnhJSA8Lr90OpZWqJmmZxcxv1Q5mNoulaHantFzDMWrfK0IUuw/9xWSaQgKjbRbMy3rWN+YTyvC1DffB4/lL2DG+0NUpiPBG2PJ0evwVA2qVA8Xhd2V3yCEzW/S4sVCUqCbQUzMXvki2GLRPfvqdiMssu/yM6LBEqz6mMfS5ytHrja7zyTxYuGHYaH505B8aCFUhZ9+OKPOHXlj4jnvc5I57+ciZgyaBEKMkfh2OVdKGUpwTVHNb9DHrLk4oELMCL/UZys2cvE2RVmtXLojBqBAy5rbW1modEtdlpPJORXdGpj1MNwooidArCoabbooNHe/2zBzyLJvRaIEJo5W0AY03XSHu2JCJuHRquCiVkUCdbTiGsP0ZYji+ppQsXtaHQGDQxmHS/1DLrkjSks6tm7p9AlkW45cspIewJdEukWpl4s4mlS30HdlUhkUWaLPuVTg7sSiSBLMjGhOj0KTynuWiRCyqHSUjfidYtIBEU8gzn6Hw+TmW4TiSCRKI9KNbpVJMKYrk251KDbRaLHGSYmVCqlBt0uEqFiKQGlBvSZCiREJEJKDVhWngqpQcJEIrR6NcwkVJKTUJEILT01MCV3apBwkQhDGksNkjji3RORCEoNHoTn5F3hno06EPGS8akB8D9BGD+R3W9tXgAAAABJRU5ErkJggg==;" vertex="1" parent="1">
          <mxGeometry x="-646.16" y="-321.53999999999996" width="42.32" height="40" as="geometry" />
        </mxCell>
        <mxCell id="Uc-f4Ewm9fvxlKjvNhb2-77" value="" style="shape=image;verticalLabelPosition=bottom;labelBackgroundColor=default;verticalAlign=top;aspect=fixed;imageAspect=0;image=data:image/png,iVBORw0KGgoAAAANSUhEUgAAAEkAAABFCAYAAAAGscunAAAAAXNSR0IArs4c6QAAAARnQU1BAACxjwv8YQUAAAAJcEhZcwAADsMAAA7DAcdvqGQAAAcESURBVHhe7ZoJbFRFGMf/ex8t2y0tPaCFcsjNAhKhHBoEDIfBCBgMGJqgkGAIJkLUmBglaogmJiYYFYlXxBBFA1GCwaBgBISCxXJYoVyFll4UFtptu93T+d4O7G7ZfTtbusBu32+z2Tczb3Zn/vPN933zWtWHh5/yQ0EWNf9UkEERSQBFJAEUkQRQRBJAEUkARSQBFJEEUEQSQBFJAEUkARSRBFBEEkARSQBFJAEUkQRQRBJAEUkARSQBFJEEUEQSQBFJgKQVKdtcBKsxn5cSS9KKNDZ3HkpsH2NywVJWUgUqE0TSikSyqFUaTOr3LJbZNqLQYgs0JICU8ElZpv4osj7MS92P4rgFUEQSQBFJAEUkAeIWSaPSIsOYB5M2g5XiD71put5I12exnvGvj05tCPRVxd9Xq9Yjw5AnfcaLZs6KYev5dUysxr6YO2QdphUuw4js6ewHdahznOat8tAEpxaWYMbAVbDlzpUmW9NyCj6/l98hD4X4OYPX4pG+i2Ax9IGFLVRoMknjuHyznJfCyUsbijlD1mJy4VL0Z99z3VkNh+sab42N0D9x0YTG5MzGhPynmTAGXhug3lGJ0ivfSwP0+j28NgjlMkN6T5byGQrVoThcTThQvQUX7KVwedt5bTi9TQUYlzsfo3JmSVYcjbK6Hdh/+WteCkAi2nLmsEWZF2ZBNM7jDbtwsmE37M5aXhudmCKN6jMTjxetkjVTv9/HrOJf7Kx8l03WyWtpkP2wYPibsOhzom4RP3vdYAPdfno9WjoaeW1A3An5C5i4i+9YmEiEikS/RRn51IJl0GmMUl0kaGEO12zFsfqdrBRdBtnNXVywBE8MWiMrEEGDKrSMwfPjPodRZYXH7YNVX4iloz+Q/ICcD1GxVyYTc/nYTcg3j5T60vuZERvY9lwmJBDh8/lv951VtBrTB6yUFYjQa0x4bMALmF60ktdERlYkq4H2fLhzJku5dO0EmtsbmT/x8doA9KOeNjXabrqgc1tY2cxbYkOWo3abpb70zkkbzFuCtLma0dhSBa/PzWuCuDu8t/tatHcefKnvhaZj6PC08pog6Zo+bDfwQgRkRaKtEMr11lp8c+gVbCl9DZ/+uQoHz2/jLYmFtvPfl3bii4MvYfOB1dhW9jZanOKO93jNb1Lfb0tfx5d/vYwqtsih2B0NaG9hwkcRSlakztjb6lB7s1KyIFqRM/UHeUticXs7cKTqJ+n3fT4PzjYewfmmMt4am/Jq5qBZX+JqyyWcvLJXura31eLXik3Y899n8Li8cDFrjEQMkWR9ekTkzPZBodVlx4Hz30m7ofTiDnj49nU63PB6wl0IEZcl3S+0Gj0mDVyITHPA1wzPm4KirLHStQjTh5ZgUDY9JQj418qGw9h7+it4mIV2xulgaUynhe52S7pFlywqrE+wIKUD/edhxbSPUDLpfSye8BasplzeGpsBWTY8N3EDFo5/Fb2M2bw2MmRJ7cyiQpF33CGDpsz4TMMhXgpA+5yiTSSuOi7B0XGdl2Lj8blu+w3CzoJEZ0y6XijKHsdL4dxsv8qvWPbdfJZfBVGpVBjddwZWTN2IGcOWy6YHFCldzqB/kj2WDM4sRqapH6qayrG9/L07RKKJUeSgkGw150GvNeNo1c9wuh1wedqYg9wHA6ujNp0mcr7Twe47VbsPW4+8ESZSRd1+9n1GZDCLoc9o1Defk5zv8Zo9rBRY1QtN/+A6c8q0PdMNmVLdLWg8/XuPxrDcYpxrPApnhJSA8Lr90OpZWqJmmZxcxv1Q5mNoulaHantFzDMWrfK0IUuw/9xWSaQgKjbRbMy3rWN+YTyvC1DffB4/lL2DG+0NUpiPBG2PJ0evwVA2qVA8Xhd2V3yCEzW/S4sVCUqCbQUzMXvki2GLRPfvqdiMssu/yM6LBEqz6mMfS5ytHrja7zyTxYuGHYaH505B8aCFUhZ9+OKPOHXlj4jnvc5I57+ciZgyaBEKMkfh2OVdKGUpwTVHNb9DHrLk4oELMCL/UZys2cvE2RVmtXLojBqBAy5rbW1modEtdlpPJORXdGpj1MNwooidArCoabbooNHe/2zBzyLJvRaIEJo5W0AY03XSHu2JCJuHRquCiVkUCdbTiGsP0ZYji+ppQsXtaHQGDQxmHS/1DLrkjSks6tm7p9AlkW45cspIewJdEukWpl4s4mlS30HdlUhkUWaLPuVTg7sSiSBLMjGhOj0KTynuWiRCyqHSUjfidYtIBEU8gzn6Hw+TmW4TiSCRKI9KNbpVJMKYrk251KDbRaLHGSYmVCqlBt0uEqFiKQGlBvSZCiREJEJKDVhWngqpQcJEIrR6NcwkVJKTUJEILT01MCV3apBwkQhDGksNkjji3RORCEoNHoTn5F3hno06EPGS8akB8D9BGD+R3W9tXgAAAABJRU5ErkJggg==;" vertex="1" parent="1">
          <mxGeometry x="-379.99999999999994" y="-294.99999999999994" width="42.32" height="40" as="geometry" />
        </mxCell>
        <mxCell id="Uc-f4Ewm9fvxlKjvNhb2-78" value="" style="shape=image;verticalLabelPosition=bottom;labelBackgroundColor=default;verticalAlign=top;aspect=fixed;imageAspect=0;image=data:image/png,iVBORw0KGgoAAAANSUhEUgAAAEkAAABFCAYAAAAGscunAAAAAXNSR0IArs4c6QAAAARnQU1BAACxjwv8YQUAAAAJcEhZcwAADsMAAA7DAcdvqGQAAAcESURBVHhe7ZoJbFRFGMf/ex8t2y0tPaCFcsjNAhKhHBoEDIfBCBgMGJqgkGAIJkLUmBglaogmJiYYFYlXxBBFA1GCwaBgBISCxXJYoVyFll4UFtptu93T+d4O7G7ZfTtbusBu32+z2Tczb3Zn/vPN933zWtWHh5/yQ0EWNf9UkEERSQBFJAEUkQRQRBJAEUkARSQBFJEEUEQSQBFJAEUkARSRBFBEEkARSQBFJAEUkQRQRBJAEUkARSQBFJEEUEQSQBFJgKQVKdtcBKsxn5cSS9KKNDZ3HkpsH2NywVJWUgUqE0TSikSyqFUaTOr3LJbZNqLQYgs0JICU8ElZpv4osj7MS92P4rgFUEQSQBFJAEUkAeIWSaPSIsOYB5M2g5XiD71put5I12exnvGvj05tCPRVxd9Xq9Yjw5AnfcaLZs6KYev5dUysxr6YO2QdphUuw4js6ewHdahznOat8tAEpxaWYMbAVbDlzpUmW9NyCj6/l98hD4X4OYPX4pG+i2Ax9IGFLVRoMknjuHyznJfCyUsbijlD1mJy4VL0Z99z3VkNh+sab42N0D9x0YTG5MzGhPynmTAGXhug3lGJ0ivfSwP0+j28NgjlMkN6T5byGQrVoThcTThQvQUX7KVwedt5bTi9TQUYlzsfo3JmSVYcjbK6Hdh/+WteCkAi2nLmsEWZF2ZBNM7jDbtwsmE37M5aXhudmCKN6jMTjxetkjVTv9/HrOJf7Kx8l03WyWtpkP2wYPibsOhzom4RP3vdYAPdfno9WjoaeW1A3An5C5i4i+9YmEiEikS/RRn51IJl0GmMUl0kaGEO12zFsfqdrBRdBtnNXVywBE8MWiMrEEGDKrSMwfPjPodRZYXH7YNVX4iloz+Q/ICcD1GxVyYTc/nYTcg3j5T60vuZERvY9lwmJBDh8/lv951VtBrTB6yUFYjQa0x4bMALmF60ktdERlYkq4H2fLhzJku5dO0EmtsbmT/x8doA9KOeNjXabrqgc1tY2cxbYkOWo3abpb70zkkbzFuCtLma0dhSBa/PzWuCuDu8t/tatHcefKnvhaZj6PC08pog6Zo+bDfwQgRkRaKtEMr11lp8c+gVbCl9DZ/+uQoHz2/jLYmFtvPfl3bii4MvYfOB1dhW9jZanOKO93jNb1Lfb0tfx5d/vYwqtsih2B0NaG9hwkcRSlakztjb6lB7s1KyIFqRM/UHeUticXs7cKTqJ+n3fT4PzjYewfmmMt4am/Jq5qBZX+JqyyWcvLJXura31eLXik3Y899n8Li8cDFrjEQMkWR9ekTkzPZBodVlx4Hz30m7ofTiDnj49nU63PB6wl0IEZcl3S+0Gj0mDVyITHPA1wzPm4KirLHStQjTh5ZgUDY9JQj418qGw9h7+it4mIV2xulgaUynhe52S7pFlywqrE+wIKUD/edhxbSPUDLpfSye8BasplzeGpsBWTY8N3EDFo5/Fb2M2bw2MmRJ7cyiQpF33CGDpsz4TMMhXgpA+5yiTSSuOi7B0XGdl2Lj8blu+w3CzoJEZ0y6XijKHsdL4dxsv8qvWPbdfJZfBVGpVBjddwZWTN2IGcOWy6YHFCldzqB/kj2WDM4sRqapH6qayrG9/L07RKKJUeSgkGw150GvNeNo1c9wuh1wedqYg9wHA6ujNp0mcr7Twe47VbsPW4+8ESZSRd1+9n1GZDCLoc9o1Defk5zv8Zo9rBRY1QtN/+A6c8q0PdMNmVLdLWg8/XuPxrDcYpxrPApnhJSA8Lr90OpZWqJmmZxcxv1Q5mNoulaHantFzDMWrfK0IUuw/9xWSaQgKjbRbMy3rWN+YTyvC1DffB4/lL2DG+0NUpiPBG2PJ0evwVA2qVA8Xhd2V3yCEzW/S4sVCUqCbQUzMXvki2GLRPfvqdiMssu/yM6LBEqz6mMfS5ytHrja7zyTxYuGHYaH505B8aCFUhZ9+OKPOHXlj4jnvc5I57+ciZgyaBEKMkfh2OVdKGUpwTVHNb9DHrLk4oELMCL/UZys2cvE2RVmtXLojBqBAy5rbW1modEtdlpPJORXdGpj1MNwooidArCoabbooNHe/2zBzyLJvRaIEJo5W0AY03XSHu2JCJuHRquCiVkUCdbTiGsP0ZYji+ppQsXtaHQGDQxmHS/1DLrkjSks6tm7p9AlkW45cspIewJdEukWpl4s4mlS30HdlUhkUWaLPuVTg7sSiSBLMjGhOj0KTynuWiRCyqHSUjfidYtIBEU8gzn6Hw+TmW4TiSCRKI9KNbpVJMKYrk251KDbRaLHGSYmVCqlBt0uEqFiKQGlBvSZCiREJEJKDVhWngqpQcJEIrR6NcwkVJKTUJEILT01MCV3apBwkQhDGksNkjji3RORCEoNHoTn5F3hno06EPGS8akB8D9BGD+R3W9tXgAAAABJRU5ErkJggg==;" vertex="1" parent="1">
          <mxGeometry x="-161.15999999999994" y="-545.5999999999999" width="42.32" height="40" as="geometry" />
        </mxCell>
        <mxCell id="Uc-f4Ewm9fvxlKjvNhb2-79" value="" style="rounded=1;whiteSpace=wrap;html=1;absoluteArcSize=1;arcSize=14;strokeWidth=2;fillColor=none;" vertex="1" parent="1">
          <mxGeometry x="-820" y="-556" width="810" height="520" as="geometry" />
        </mxCell>
      </root>
    </mxGraphModel>
  </diagram>
</mxfile>
